<svg width="16" height="16" viewBox="0 0 16 16" fill="none" xmlns="http://www.w3.org/2000/svg">
<path fill-rule="evenodd" clip-rule="evenodd" d="M4.19083 3.25224L4.18452 3.15072C4.18452 2.73812 4.49327 2.39763 4.89234 2.34769L4.99386 2.34138H13.0059L13.0547 2.34285L13.1251 2.3501L13.2298 2.37276L13.3249 2.40668L13.4054 2.44672L13.5066 2.5148L13.5782 2.57843L13.6196 2.62308L13.6815 2.70489L13.7284 2.78553L13.7668 2.87424L13.7926 2.95998L13.8104 3.06209L13.8152 3.15072L13.8152 11.1628C13.8152 11.6097 13.4529 11.9721 13.0059 11.9721C12.5933 11.9721 12.2528 11.6633 12.2029 11.2643L12.1966 11.1628L12.1955 5.10566L3.27699 14.0242C2.96093 14.3403 2.44848 14.3403 2.13242 14.0242C1.81635 13.7081 1.81635 13.1957 2.13242 12.8796L11.0521 3.95993L4.99386 3.96006C4.58126 3.96006 4.24077 3.65131 4.19083 3.25224L4.18452 3.15072L4.19083 3.25224Z" fill="white"/>
</svg>
