<svg width="16" height="16" viewBox="0 0 16 16" fill="none" xmlns="http://www.w3.org/2000/svg">
<path fill-rule="evenodd" clip-rule="evenodd" d="M4.19095 3.25218L4.18464 3.15066C4.18464 2.73806 4.49339 2.39757 4.89246 2.34763L4.99398 2.34132H13.006L13.0549 2.34279L13.1253 2.35004L13.2299 2.37269L13.325 2.40662L13.4056 2.44666L13.5068 2.51474L13.5783 2.57837L13.6198 2.62302L13.6816 2.70483L13.7285 2.78547L13.7669 2.87418L13.7928 2.95992L13.8105 3.06203L13.8154 3.15066L13.8154 11.1627C13.8154 11.6097 13.453 11.972 13.006 11.972C12.5934 11.972 12.2529 11.6633 12.203 11.2642L12.1967 11.1627L12.1957 5.1056L3.27711 14.0241C2.96105 14.3402 2.4486 14.3402 2.13254 14.0241C1.81647 13.7081 1.81647 13.1956 2.13254 12.8796L11.0522 3.95987L4.99398 3.96C4.58138 3.96 4.24089 3.65125 4.19095 3.25218L4.18464 3.15066L4.19095 3.25218Z" fill="#C81E1E"/>
</svg>
