<svg width="1280" height="400" viewBox="0 0 1280 400" fill="none" xmlns="http://www.w3.org/2000/svg">
<rect width="1280" height="400" rx="1" fill="url(#paint0_linear_56_1683)"/>
<path d="M315.578 170.8V162.06C316.565 162.06 317.378 161.813 318.018 161.32C318.658 160.813 319.165 160.127 319.538 159.26C319.925 158.38 320.218 157.38 320.418 156.26C320.632 155.14 320.792 153.96 320.898 152.72C321.058 151.04 321.192 149.4 321.298 147.8C321.418 146.187 321.525 144.52 321.618 142.8C321.725 141.08 321.838 139.207 321.958 137.18L340.398 137.2V162.06H342.538V170.8H338.338V166H319.758V170.8H315.578ZM322.438 162.06H336.218V141.14L325.818 141.12C325.725 142.587 325.645 143.98 325.578 145.3C325.512 146.62 325.425 147.953 325.318 149.3C325.225 150.633 325.105 152.067 324.958 153.6C324.812 155.067 324.658 156.313 324.498 157.34C324.338 158.353 324.098 159.233 323.778 159.98C323.472 160.727 323.025 161.42 322.438 162.06ZM356.301 166.6C354.141 166.6 352.268 166.113 350.681 165.14C349.094 164.167 347.868 162.827 347.001 161.12C346.148 159.4 345.721 157.42 345.721 155.18C345.721 152.927 346.161 150.947 347.041 149.24C347.921 147.52 349.154 146.187 350.741 145.24C352.328 144.28 354.181 143.8 356.301 143.8C358.461 143.8 360.334 144.287 361.921 145.26C363.508 146.233 364.734 147.573 365.601 149.28C366.468 150.987 366.901 152.953 366.901 155.18C366.901 157.433 366.461 159.42 365.581 161.14C364.714 162.847 363.488 164.187 361.901 165.16C360.314 166.12 358.448 166.6 356.301 166.6ZM356.301 162.66C358.368 162.66 359.908 161.967 360.921 160.58C361.948 159.18 362.461 157.38 362.461 155.18C362.461 152.927 361.941 151.127 360.901 149.78C359.874 148.42 358.341 147.74 356.301 147.74C354.901 147.74 353.748 148.06 352.841 148.7C351.934 149.327 351.261 150.2 350.821 151.32C350.381 152.427 350.161 153.713 350.161 155.18C350.161 157.447 350.681 159.26 351.721 160.62C352.761 161.98 354.288 162.66 356.301 162.66ZM380.176 166.62C378.123 166.607 376.376 166.16 374.936 165.28C373.496 164.4 372.369 163.133 371.556 161.48C370.756 159.813 370.289 157.807 370.156 155.46C370.089 154.327 370.096 153.073 370.176 151.7C370.256 150.313 370.403 148.973 370.616 147.68C370.843 146.387 371.129 145.307 371.476 144.44C371.863 143.48 372.389 142.6 373.056 141.8C373.723 140.987 374.456 140.307 375.256 139.76C376.109 139.173 377.056 138.72 378.096 138.4C379.136 138.067 380.223 137.807 381.356 137.62C382.503 137.433 383.656 137.273 384.816 137.14C385.989 136.993 387.129 136.813 388.236 136.6L388.636 140.34C387.903 140.513 387.036 140.653 386.036 140.76C385.049 140.867 384.023 140.987 382.956 141.12C381.903 141.253 380.896 141.44 379.936 141.68C378.976 141.92 378.143 142.26 377.436 142.7C376.436 143.313 375.669 144.207 375.136 145.38C374.616 146.553 374.303 147.827 374.196 149.2C375.023 147.947 376.076 147.047 377.356 146.5C378.636 145.94 379.963 145.66 381.336 145.66C383.256 145.66 384.909 146.113 386.296 147.02C387.696 147.927 388.769 149.16 389.516 150.72C390.263 152.28 390.636 154.047 390.636 156.02C390.636 158.153 390.196 160.02 389.316 161.62C388.449 163.207 387.229 164.447 385.656 165.34C384.083 166.22 382.256 166.647 380.176 166.62ZM380.396 162.68C382.316 162.68 383.763 162.087 384.736 160.9C385.723 159.713 386.216 158.133 386.216 156.16C386.216 154.133 385.709 152.54 384.696 151.38C383.683 150.22 382.249 149.64 380.396 149.64C378.516 149.64 377.076 150.22 376.076 151.38C375.089 152.54 374.596 154.133 374.596 156.16C374.596 158.213 375.096 159.813 376.096 160.96C377.096 162.107 378.529 162.68 380.396 162.68ZM405.186 166.6C403.119 166.6 401.386 166.1 399.986 165.1C398.586 164.087 397.526 162.72 396.806 161C396.086 159.28 395.726 157.34 395.726 155.18C395.726 153.02 396.079 151.08 396.786 149.36C397.506 147.64 398.559 146.287 399.946 145.3C401.346 144.3 403.066 143.8 405.106 143.8C407.133 143.8 408.879 144.3 410.346 145.3C411.826 146.287 412.966 147.64 413.766 149.36C414.566 151.067 414.966 153.007 414.966 155.18C414.966 157.34 414.566 159.287 413.766 161.02C412.979 162.74 411.853 164.1 410.386 165.1C408.933 166.1 407.199 166.6 405.186 166.6ZM395.026 175.6V144.4H398.746V159.94H399.226V175.6H395.026ZM404.606 162.82C405.939 162.82 407.039 162.48 407.906 161.8C408.786 161.12 409.439 160.207 409.866 159.06C410.306 157.9 410.526 156.607 410.526 155.18C410.526 153.767 410.306 152.487 409.866 151.34C409.439 150.193 408.779 149.28 407.886 148.6C406.993 147.92 405.853 147.58 404.466 147.58C403.159 147.58 402.079 147.9 401.226 148.54C400.386 149.18 399.759 150.073 399.346 151.22C398.946 152.367 398.746 153.687 398.746 155.18C398.746 156.673 398.946 157.993 399.346 159.14C399.746 160.287 400.379 161.187 401.246 161.84C402.113 162.493 403.233 162.82 404.606 162.82ZM428.762 166.6C426.602 166.6 424.729 166.113 423.142 165.14C421.555 164.167 420.329 162.827 419.462 161.12C418.609 159.4 418.182 157.42 418.182 155.18C418.182 152.927 418.622 150.947 419.502 149.24C420.382 147.52 421.615 146.187 423.202 145.24C424.789 144.28 426.642 143.8 428.762 143.8C430.922 143.8 432.795 144.287 434.382 145.26C435.969 146.233 437.195 147.573 438.062 149.28C438.929 150.987 439.362 152.953 439.362 155.18C439.362 157.433 438.922 159.42 438.042 161.14C437.175 162.847 435.949 164.187 434.362 165.16C432.775 166.12 430.909 166.6 428.762 166.6ZM428.762 162.66C430.829 162.66 432.369 161.967 433.382 160.58C434.409 159.18 434.922 157.38 434.922 155.18C434.922 152.927 434.402 151.127 433.362 149.78C432.335 148.42 430.802 147.74 428.762 147.74C427.362 147.74 426.209 148.06 425.302 148.7C424.395 149.327 423.722 150.2 423.282 151.32C422.842 152.427 422.622 153.713 422.622 155.18C422.622 157.447 423.142 159.26 424.182 160.62C425.222 161.98 426.749 162.66 428.762 162.66ZM451.745 166V144.4H469.965V166H465.785V148.34H455.925V166H451.745ZM484.934 166.6C482.774 166.6 480.901 166.113 479.314 165.14C477.727 164.167 476.501 162.827 475.634 161.12C474.781 159.4 474.354 157.42 474.354 155.18C474.354 152.927 474.794 150.947 475.674 149.24C476.554 147.52 477.787 146.187 479.374 145.24C480.961 144.28 482.814 143.8 484.934 143.8C487.094 143.8 488.967 144.287 490.554 145.26C492.141 146.233 493.367 147.573 494.234 149.28C495.101 150.987 495.534 152.953 495.534 155.18C495.534 157.433 495.094 159.42 494.214 161.14C493.347 162.847 492.121 164.187 490.534 165.16C488.947 166.12 487.081 166.6 484.934 166.6ZM484.934 162.66C487.001 162.66 488.541 161.967 489.554 160.58C490.581 159.18 491.094 157.38 491.094 155.18C491.094 152.927 490.574 151.127 489.534 149.78C488.507 148.42 486.974 147.74 484.934 147.74C483.534 147.74 482.381 148.06 481.474 148.7C480.567 149.327 479.894 150.2 479.454 151.32C479.014 152.427 478.794 153.713 478.794 155.18C478.794 157.447 479.314 159.26 480.354 160.62C481.394 161.98 482.921 162.66 484.934 162.66ZM496.943 166L505.263 155.2L497.403 144.4H502.003L509.523 154.94V144.4H513.283V154.94L520.803 144.4H525.423L517.563 155.2L525.883 166H521.023L513.283 155.46V166H509.523V155.46L501.803 166H496.943ZM534.388 166.6C532.788 166.6 531.448 166.307 530.368 165.72C529.288 165.12 528.468 164.333 527.908 163.36C527.362 162.373 527.088 161.293 527.088 160.12C527.088 159.027 527.282 158.067 527.668 157.24C528.055 156.413 528.628 155.713 529.388 155.14C530.148 154.553 531.082 154.08 532.188 153.72C533.148 153.44 534.235 153.193 535.448 152.98C536.662 152.767 537.935 152.567 539.268 152.38C540.615 152.193 541.948 152.007 543.268 151.82L541.748 152.66C541.775 150.967 541.415 149.713 540.668 148.9C539.935 148.073 538.668 147.66 536.868 147.66C535.735 147.66 534.695 147.927 533.748 148.46C532.802 148.98 532.142 149.847 531.768 151.06L527.868 149.86C528.402 148.007 529.415 146.533 530.908 145.44C532.415 144.347 534.415 143.8 536.908 143.8C538.842 143.8 540.522 144.133 541.948 144.8C543.388 145.453 544.442 146.493 545.108 147.92C545.455 148.627 545.668 149.373 545.748 150.16C545.828 150.947 545.868 151.793 545.868 152.7V166H542.168V161.06L542.888 161.7C541.995 163.353 540.855 164.587 539.468 165.4C538.095 166.2 536.402 166.6 534.388 166.6ZM535.128 163.18C536.315 163.18 537.335 162.973 538.188 162.56C539.042 162.133 539.728 161.593 540.248 160.94C540.768 160.287 541.108 159.607 541.268 158.9C541.495 158.26 541.622 157.54 541.648 156.74C541.688 155.94 541.708 155.3 541.708 154.82L543.068 155.32C541.748 155.52 540.548 155.7 539.468 155.86C538.388 156.02 537.408 156.18 536.528 156.34C535.662 156.487 534.888 156.667 534.208 156.88C533.635 157.08 533.122 157.32 532.668 157.6C532.228 157.88 531.875 158.22 531.608 158.62C531.355 159.02 531.228 159.507 531.228 160.08C531.228 160.64 531.368 161.16 531.648 161.64C531.928 162.107 532.355 162.48 532.928 162.76C533.502 163.04 534.235 163.18 535.128 163.18ZM549.062 166V162.46C549.862 162.607 550.468 162.587 550.882 162.4C551.308 162.2 551.622 161.84 551.822 161.32C552.035 160.8 552.215 160.127 552.362 159.3C552.588 158.087 552.782 156.707 552.942 155.16C553.115 153.6 553.268 151.913 553.402 150.1C553.535 148.287 553.655 146.387 553.762 144.4H569.282V166H565.082V148.34H557.522C557.442 149.393 557.348 150.513 557.242 151.7C557.148 152.873 557.042 154.04 556.922 155.2C556.802 156.36 556.675 157.447 556.542 158.46C556.408 159.473 556.268 160.34 556.122 161.06C555.855 162.5 555.462 163.647 554.942 164.5C554.435 165.34 553.715 165.88 552.782 166.12C551.848 166.373 550.608 166.333 549.062 166ZM584.27 166.6C582.11 166.6 580.237 166.113 578.65 165.14C577.063 164.167 575.837 162.827 574.97 161.12C574.117 159.4 573.69 157.42 573.69 155.18C573.69 152.927 574.13 150.947 575.01 149.24C575.89 147.52 577.123 146.187 578.71 145.24C580.297 144.28 582.15 143.8 584.27 143.8C586.43 143.8 588.303 144.287 589.89 145.26C591.477 146.233 592.703 147.573 593.57 149.28C594.437 150.987 594.87 152.953 594.87 155.18C594.87 157.433 594.43 159.42 593.55 161.14C592.683 162.847 591.457 164.187 589.87 165.16C588.283 166.12 586.417 166.6 584.27 166.6ZM584.27 162.66C586.337 162.66 587.877 161.967 588.89 160.58C589.917 159.18 590.43 157.38 590.43 155.18C590.43 152.927 589.91 151.127 588.87 149.78C587.843 148.42 586.31 147.74 584.27 147.74C582.87 147.74 581.717 148.06 580.81 148.7C579.903 149.327 579.23 150.2 578.79 151.32C578.35 152.427 578.13 153.713 578.13 155.18C578.13 157.447 578.65 159.26 579.69 160.62C580.73 161.98 582.257 162.66 584.27 162.66ZM599.245 166V144.4H608.745C609.372 144.4 609.998 144.44 610.625 144.52C611.252 144.587 611.805 144.687 612.285 144.82C613.378 145.127 614.312 145.74 615.085 146.66C615.858 147.567 616.245 148.78 616.245 150.3C616.245 151.167 616.112 151.9 615.845 152.5C615.578 153.087 615.212 153.593 614.745 154.02C614.532 154.207 614.305 154.373 614.065 154.52C613.825 154.667 613.585 154.78 613.345 154.86C613.838 154.94 614.325 155.113 614.805 155.38C615.538 155.767 616.138 156.327 616.605 157.06C617.085 157.78 617.325 158.747 617.325 159.96C617.325 161.413 616.972 162.633 616.265 163.62C615.558 164.593 614.558 165.26 613.265 165.62C612.758 165.767 612.185 165.867 611.545 165.92C610.918 165.973 610.292 166 609.665 166H599.245ZM603.485 162.7H609.405C609.685 162.7 610.005 162.673 610.365 162.62C610.725 162.567 611.045 162.493 611.325 162.4C611.925 162.213 612.352 161.873 612.605 161.38C612.872 160.887 613.005 160.36 613.005 159.8C613.005 159.04 612.805 158.433 612.405 157.98C612.005 157.513 611.498 157.213 610.885 157.08C610.618 156.987 610.325 156.933 610.005 156.92C609.685 156.907 609.412 156.9 609.185 156.9H603.485V162.7ZM603.485 153.54H608.165C608.552 153.54 608.945 153.52 609.345 153.48C609.745 153.427 610.092 153.34 610.385 153.22C610.905 153.02 611.292 152.687 611.545 152.22C611.798 151.74 611.925 151.22 611.925 150.66C611.925 150.047 611.785 149.5 611.505 149.02C611.225 148.54 610.805 148.207 610.245 148.02C609.858 147.887 609.412 147.813 608.905 147.8C608.412 147.773 608.098 147.76 607.965 147.76H603.485V153.54ZM627.435 166.6C625.835 166.6 624.495 166.307 623.415 165.72C622.335 165.12 621.515 164.333 620.955 163.36C620.408 162.373 620.135 161.293 620.135 160.12C620.135 159.027 620.328 158.067 620.715 157.24C621.102 156.413 621.675 155.713 622.435 155.14C623.195 154.553 624.128 154.08 625.235 153.72C626.195 153.44 627.282 153.193 628.495 152.98C629.708 152.767 630.982 152.567 632.315 152.38C633.662 152.193 634.995 152.007 636.315 151.82L634.795 152.66C634.822 150.967 634.462 149.713 633.715 148.9C632.982 148.073 631.715 147.66 629.915 147.66C628.782 147.66 627.742 147.927 626.795 148.46C625.848 148.98 625.188 149.847 624.815 151.06L620.915 149.86C621.448 148.007 622.462 146.533 623.955 145.44C625.462 144.347 627.462 143.8 629.955 143.8C631.888 143.8 633.568 144.133 634.995 144.8C636.435 145.453 637.488 146.493 638.155 147.92C638.502 148.627 638.715 149.373 638.795 150.16C638.875 150.947 638.915 151.793 638.915 152.7V166H635.215V161.06L635.935 161.7C635.042 163.353 633.902 164.587 632.515 165.4C631.142 166.2 629.448 166.6 627.435 166.6ZM628.175 163.18C629.362 163.18 630.382 162.973 631.235 162.56C632.088 162.133 632.775 161.593 633.295 160.94C633.815 160.287 634.155 159.607 634.315 158.9C634.542 158.26 634.668 157.54 634.695 156.74C634.735 155.94 634.755 155.3 634.755 154.82L636.115 155.32C634.795 155.52 633.595 155.7 632.515 155.86C631.435 156.02 630.455 156.18 629.575 156.34C628.708 156.487 627.935 156.667 627.255 156.88C626.682 157.08 626.168 157.32 625.715 157.6C625.275 157.88 624.922 158.22 624.655 158.62C624.402 159.02 624.275 159.507 624.275 160.08C624.275 160.64 624.415 161.16 624.695 161.64C624.975 162.107 625.402 162.48 625.975 162.76C626.548 163.04 627.282 163.18 628.175 163.18ZM649.689 166V148.16H642.309V144.4H661.249V148.16H653.869V166H649.689ZM665.026 166V144.4H669.226V151.9H673.486C674.099 151.9 674.753 151.913 675.446 151.94C676.153 151.967 676.759 152.033 677.266 152.14C678.426 152.38 679.426 152.78 680.266 153.34C681.119 153.9 681.779 154.647 682.246 155.58C682.713 156.5 682.946 157.633 682.946 158.98C682.946 160.86 682.453 162.36 681.466 163.48C680.493 164.587 679.173 165.333 677.506 165.72C676.973 165.84 676.339 165.92 675.606 165.96C674.886 165.987 674.226 166 673.626 166H665.026ZM669.226 162.64H673.866C674.199 162.64 674.579 162.627 675.006 162.6C675.433 162.573 675.826 162.513 676.186 162.42C676.826 162.233 677.399 161.853 677.906 161.28C678.413 160.707 678.666 159.94 678.666 158.98C678.666 157.993 678.413 157.207 677.906 156.62C677.413 156.033 676.786 155.653 676.026 155.48C675.666 155.387 675.299 155.327 674.926 155.3C674.553 155.273 674.199 155.26 673.866 155.26H669.226V162.64ZM695.339 166V144.4H704.839C705.465 144.4 706.092 144.44 706.719 144.52C707.345 144.587 707.899 144.687 708.379 144.82C709.472 145.127 710.405 145.74 711.179 146.66C711.952 147.567 712.339 148.78 712.339 150.3C712.339 151.167 712.205 151.9 711.939 152.5C711.672 153.087 711.305 153.593 710.839 154.02C710.625 154.207 710.399 154.373 710.159 154.52C709.919 154.667 709.679 154.78 709.439 154.86C709.932 154.94 710.419 155.113 710.899 155.38C711.632 155.767 712.232 156.327 712.699 157.06C713.179 157.78 713.419 158.747 713.419 159.96C713.419 161.413 713.065 162.633 712.359 163.62C711.652 164.593 710.652 165.26 709.359 165.62C708.852 165.767 708.279 165.867 707.639 165.92C707.012 165.973 706.385 166 705.759 166H695.339ZM699.579 162.7H705.499C705.779 162.7 706.099 162.673 706.459 162.62C706.819 162.567 707.139 162.493 707.419 162.4C708.019 162.213 708.445 161.873 708.699 161.38C708.965 160.887 709.099 160.36 709.099 159.8C709.099 159.04 708.899 158.433 708.499 157.98C708.099 157.513 707.592 157.213 706.979 157.08C706.712 156.987 706.419 156.933 706.099 156.92C705.779 156.907 705.505 156.9 705.279 156.9H699.579V162.7ZM699.579 153.54H704.259C704.645 153.54 705.039 153.52 705.439 153.48C705.839 153.427 706.185 153.34 706.479 153.22C706.999 153.02 707.385 152.687 707.639 152.22C707.892 151.74 708.019 151.22 708.019 150.66C708.019 150.047 707.879 149.5 707.599 149.02C707.319 148.54 706.899 148.207 706.339 148.02C705.952 147.887 705.505 147.813 704.999 147.8C704.505 147.773 704.192 147.76 704.059 147.76H699.579V153.54ZM725.837 166V137.2H730.017V166H725.837ZM743.203 166V141.14H733.623V137.2H756.963V141.14H747.383V166H743.203ZM766.94 166L766.96 144.4H771.2V154.8L779.68 144.4H785L776.04 155.2L785.92 166H780.24L771.2 155.6V166H766.94ZM796.926 166.6C794.766 166.6 792.893 166.113 791.306 165.14C789.719 164.167 788.493 162.827 787.626 161.12C786.773 159.4 786.346 157.42 786.346 155.18C786.346 152.927 786.786 150.947 787.666 149.24C788.546 147.52 789.779 146.187 791.366 145.24C792.953 144.28 794.806 143.8 796.926 143.8C799.086 143.8 800.959 144.287 802.546 145.26C804.133 146.233 805.359 147.573 806.226 149.28C807.093 150.987 807.526 152.953 807.526 155.18C807.526 157.433 807.086 159.42 806.206 161.14C805.339 162.847 804.113 164.187 802.526 165.16C800.939 166.12 799.073 166.6 796.926 166.6ZM796.926 162.66C798.993 162.66 800.533 161.967 801.546 160.58C802.573 159.18 803.086 157.38 803.086 155.18C803.086 152.927 802.566 151.127 801.526 149.78C800.499 148.42 798.966 147.74 796.926 147.74C795.526 147.74 794.373 148.06 793.466 148.7C792.559 149.327 791.886 150.2 791.446 151.32C791.006 152.427 790.786 153.713 790.786 155.18C790.786 157.447 791.306 159.26 792.346 160.62C793.386 161.98 794.913 162.66 796.926 162.66ZM811.901 166V144.4H815.401L823.381 160.24L831.341 144.4H834.861V166H830.821V152.96L824.321 166H822.421L815.921 152.96V166H811.901ZM840.456 166V144.4H858.676V166H854.496V148.34H844.636V166H840.456ZM870.365 166.6C868.765 166.6 867.425 166.307 866.345 165.72C865.265 165.12 864.445 164.333 863.885 163.36C863.338 162.373 863.065 161.293 863.065 160.12C863.065 159.027 863.258 158.067 863.645 157.24C864.032 156.413 864.605 155.713 865.365 155.14C866.125 154.553 867.058 154.08 868.165 153.72C869.125 153.44 870.212 153.193 871.425 152.98C872.638 152.767 873.912 152.567 875.245 152.38C876.592 152.193 877.925 152.007 879.245 151.82L877.725 152.66C877.752 150.967 877.392 149.713 876.645 148.9C875.912 148.073 874.645 147.66 872.845 147.66C871.712 147.66 870.672 147.927 869.725 148.46C868.778 148.98 868.118 149.847 867.745 151.06L863.845 149.86C864.378 148.007 865.392 146.533 866.885 145.44C868.392 144.347 870.392 143.8 872.885 143.8C874.818 143.8 876.498 144.133 877.925 144.8C879.365 145.453 880.418 146.493 881.085 147.92C881.432 148.627 881.645 149.373 881.725 150.16C881.805 150.947 881.845 151.793 881.845 152.7V166H878.145V161.06L878.865 161.7C877.972 163.353 876.832 164.587 875.445 165.4C874.072 166.2 872.378 166.6 870.365 166.6ZM871.105 163.18C872.292 163.18 873.312 162.973 874.165 162.56C875.018 162.133 875.705 161.593 876.225 160.94C876.745 160.287 877.085 159.607 877.245 158.9C877.472 158.26 877.598 157.54 877.625 156.74C877.665 155.94 877.685 155.3 877.685 154.82L879.045 155.32C877.725 155.52 876.525 155.7 875.445 155.86C874.365 156.02 873.385 156.18 872.505 156.34C871.638 156.487 870.865 156.667 870.185 156.88C869.612 157.08 869.098 157.32 868.645 157.6C868.205 157.88 867.852 158.22 867.585 158.62C867.332 159.02 867.205 159.507 867.205 160.08C867.205 160.64 867.345 161.16 867.625 161.64C867.905 162.107 868.332 162.48 868.905 162.76C869.478 163.04 870.212 163.18 871.105 163.18ZM887.018 166V144.4H891.198V153.22H901.738V144.4H905.918V166H901.738V157.16H891.198V166H887.018ZM929.73 144.4V166H925.71V150.98L914.91 166H911.51V144.4H915.53V159.12L926.35 144.4H929.73ZM953.56 166.6C951.773 166.6 950.18 166.227 948.78 165.48C947.393 164.733 946.26 163.667 945.38 162.28C944.5 160.88 943.94 159.22 943.7 157.3H939.48V166H935.3V144.4H939.48V153.1H943.68C943.92 151.14 944.486 149.467 945.38 148.08C946.273 146.693 947.42 145.633 948.82 144.9C950.233 144.167 951.833 143.8 953.62 143.8C955.766 143.8 957.626 144.287 959.2 145.26C960.773 146.233 961.993 147.58 962.86 149.3C963.726 151.007 964.16 152.96 964.16 155.16C964.16 157.413 963.72 159.4 962.84 161.12C961.973 162.84 960.746 164.187 959.16 165.16C957.573 166.12 955.706 166.6 953.56 166.6ZM953.5 162.66C955.593 162.66 957.153 161.967 958.18 160.58C959.206 159.193 959.72 157.393 959.72 155.18C959.72 152.9 959.2 151.093 958.16 149.76C957.133 148.413 955.586 147.74 953.52 147.74C951.506 147.74 949.986 148.413 948.96 149.76C947.933 151.093 947.42 152.893 947.42 155.16C947.42 157.44 947.933 159.26 948.96 160.62C950 161.98 951.513 162.66 953.5 162.66ZM472.634 262V211.6H481.174L504.554 247.125V211.6H513.094V262H504.554L481.174 226.475V262H472.634ZM533.449 263.05C530.719 263.05 528.409 262.537 526.519 261.51C524.629 260.46 523.194 259.072 522.214 257.345C521.257 255.618 520.779 253.717 520.779 251.64C520.779 249.82 521.082 248.187 521.689 246.74C522.295 245.27 523.229 244.01 524.489 242.96C525.749 241.887 527.382 241.012 529.389 240.335C530.905 239.845 532.679 239.402 534.709 239.005C536.762 238.608 538.979 238.247 541.359 237.92C543.762 237.57 546.27 237.197 548.884 236.8L545.874 238.515C545.897 235.902 545.314 233.977 544.124 232.74C542.934 231.503 540.927 230.885 538.104 230.885C536.4 230.885 534.755 231.282 533.169 232.075C531.582 232.868 530.474 234.233 529.844 236.17L522.144 233.755C523.077 230.558 524.85 227.992 527.464 226.055C530.1 224.118 533.647 223.15 538.104 223.15C541.464 223.15 544.415 223.698 546.959 224.795C549.525 225.892 551.427 227.688 552.664 230.185C553.34 231.515 553.749 232.88 553.889 234.28C554.029 235.657 554.099 237.162 554.099 238.795V262H546.714V253.81L547.939 255.14C546.235 257.87 544.24 259.877 541.954 261.16C539.69 262.42 536.855 263.05 533.449 263.05ZM535.129 256.33C537.042 256.33 538.675 255.992 540.029 255.315C541.382 254.638 542.455 253.81 543.249 252.83C544.065 251.85 544.614 250.928 544.894 250.065C545.337 248.992 545.582 247.767 545.629 246.39C545.699 244.99 545.734 243.858 545.734 242.995L548.324 243.765C545.78 244.162 543.599 244.512 541.779 244.815C539.959 245.118 538.395 245.41 537.089 245.69C535.782 245.947 534.627 246.238 533.624 246.565C532.644 246.915 531.815 247.323 531.139 247.79C530.462 248.257 529.937 248.793 529.564 249.4C529.214 250.007 529.039 250.718 529.039 251.535C529.039 252.468 529.272 253.297 529.739 254.02C530.205 254.72 530.882 255.28 531.769 255.7C532.679 256.12 533.799 256.33 535.129 256.33ZM572.063 262L558.343 224.2H566.778L576.298 251.605L585.783 224.2H594.253L580.533 262H572.063ZM601.235 218.46V210.725H609.67V218.46H601.235ZM601.235 262V224.2H609.67V262H601.235ZM634.749 263.05C630.082 263.05 626.291 262 623.374 259.9C620.457 257.8 618.684 254.848 618.054 251.045L626.664 249.715C627.107 251.582 628.087 253.052 629.604 254.125C631.121 255.198 633.034 255.735 635.344 255.735C637.374 255.735 638.937 255.338 640.034 254.545C641.154 253.728 641.714 252.62 641.714 251.22C641.714 250.357 641.504 249.668 641.084 249.155C640.687 248.618 639.801 248.105 638.424 247.615C637.047 247.125 634.936 246.507 632.089 245.76C628.916 244.92 626.396 244.022 624.529 243.065C622.662 242.085 621.321 240.93 620.504 239.6C619.687 238.27 619.279 236.66 619.279 234.77C619.279 232.413 619.897 230.36 621.134 228.61C622.371 226.86 624.097 225.518 626.314 224.585C628.531 223.628 631.144 223.15 634.154 223.15C637.094 223.15 639.696 223.605 641.959 224.515C644.246 225.425 646.089 226.72 647.489 228.4C648.889 230.08 649.752 232.052 650.079 234.315L641.469 235.855C641.259 234.245 640.524 232.973 639.264 232.04C638.027 231.107 636.371 230.582 634.294 230.465C632.311 230.348 630.712 230.652 629.499 231.375C628.286 232.075 627.679 233.067 627.679 234.35C627.679 235.073 627.924 235.692 628.414 236.205C628.904 236.718 629.884 237.232 631.354 237.745C632.847 238.258 635.064 238.888 638.004 239.635C641.014 240.405 643.417 241.292 645.214 242.295C647.034 243.275 648.341 244.453 649.134 245.83C649.951 247.207 650.359 248.875 650.359 250.835C650.359 254.638 648.971 257.625 646.194 259.795C643.441 261.965 639.626 263.05 634.749 263.05ZM673.18 263.05C669.703 263.05 666.67 262.175 664.08 260.425C661.49 258.675 659.483 256.295 658.06 253.285C656.637 250.275 655.925 246.88 655.925 243.1C655.925 239.273 656.637 235.867 658.06 232.88C659.507 229.87 661.548 227.502 664.185 225.775C666.822 224.025 669.925 223.15 673.495 223.15C677.088 223.15 680.098 224.025 682.525 225.775C684.975 227.502 686.83 229.87 688.09 232.88C689.35 235.89 689.98 239.297 689.98 243.1C689.98 246.857 689.35 250.252 688.09 253.285C686.83 256.295 684.952 258.675 682.455 260.425C679.958 262.175 676.867 263.05 673.18 263.05ZM674.475 255.49C676.738 255.49 678.558 254.977 679.935 253.95C681.335 252.9 682.35 251.442 682.98 249.575C683.633 247.708 683.96 245.55 683.96 243.1C683.96 240.627 683.633 238.468 682.98 236.625C682.35 234.758 681.358 233.312 680.005 232.285C678.652 231.235 676.902 230.71 674.755 230.71C672.492 230.71 670.625 231.27 669.155 232.39C667.685 233.487 666.6 234.98 665.9 236.87C665.2 238.737 664.85 240.813 664.85 243.1C664.85 245.41 665.188 247.51 665.865 249.4C666.565 251.267 667.627 252.748 669.05 253.845C670.473 254.942 672.282 255.49 674.475 255.49ZM683.96 262V235.47H682.91V211.6H691.415V262H683.96ZM718.413 263.05C714.586 263.05 711.226 262.222 708.333 260.565C705.44 258.908 703.176 256.61 701.543 253.67C699.933 250.73 699.128 247.347 699.128 243.52C699.128 239.39 699.921 235.808 701.508 232.775C703.095 229.718 705.3 227.35 708.123 225.67C710.946 223.99 714.213 223.15 717.923 223.15C721.843 223.15 725.168 224.072 727.898 225.915C730.651 227.735 732.693 230.313 734.023 233.65C735.353 236.987 735.855 240.918 735.528 245.445H727.163V242.365C727.14 238.258 726.416 235.26 724.993 233.37C723.57 231.48 721.33 230.535 718.273 230.535C714.82 230.535 712.253 231.608 710.573 233.755C708.893 235.878 708.053 238.993 708.053 243.1C708.053 246.927 708.893 249.89 710.573 251.99C712.253 254.09 714.703 255.14 717.923 255.14C720 255.14 721.785 254.685 723.278 253.775C724.795 252.842 725.961 251.5 726.778 249.75L735.108 252.27C733.661 255.677 731.421 258.325 728.388 260.215C725.378 262.105 722.053 263.05 718.413 263.05ZM705.393 245.445V239.075H731.398V245.445H705.393ZM752.19 262L738.47 224.2H746.905L756.425 251.605L765.91 224.2H774.38L760.66 262H752.19ZM793.89 263.05C789.223 263.05 785.431 262 782.515 259.9C779.598 257.8 777.825 254.848 777.195 251.045L785.805 249.715C786.248 251.582 787.228 253.052 788.745 254.125C790.261 255.198 792.175 255.735 794.485 255.735C796.515 255.735 798.078 255.338 799.175 254.545C800.295 253.728 800.855 252.62 800.855 251.22C800.855 250.357 800.645 249.668 800.225 249.155C799.828 248.618 798.941 248.105 797.565 247.615C796.188 247.125 794.076 246.507 791.23 245.76C788.056 244.92 785.536 244.022 783.67 243.065C781.803 242.085 780.461 240.93 779.645 239.6C778.828 238.27 778.42 236.66 778.42 234.77C778.42 232.413 779.038 230.36 780.275 228.61C781.511 226.86 783.238 225.518 785.455 224.585C787.671 223.628 790.285 223.15 793.295 223.15C796.235 223.15 798.836 223.605 801.1 224.515C803.386 225.425 805.23 226.72 806.63 228.4C808.03 230.08 808.893 232.052 809.22 234.315L800.61 235.855C800.4 234.245 799.665 232.973 798.405 232.04C797.168 231.107 795.511 230.582 793.435 230.465C791.451 230.348 789.853 230.652 788.64 231.375C787.426 232.075 786.82 233.067 786.82 234.35C786.82 235.073 787.065 235.692 787.555 236.205C788.045 236.718 789.025 237.232 790.495 237.745C791.988 238.258 794.205 238.888 797.145 239.635C800.155 240.405 802.558 241.292 804.355 242.295C806.175 243.275 807.481 244.453 808.275 245.83C809.091 247.207 809.5 248.875 809.5 250.835C809.5 254.638 808.111 257.625 805.335 259.795C802.581 261.965 798.766 263.05 793.89 263.05Z" fill="white"/>
<defs>
<linearGradient id="paint0_linear_56_1683" x1="1481.5" y1="566.499" x2="-155.43" y2="-311.818" gradientUnits="userSpaceOnUse">
<stop offset="0.496652" stop-color="#EE3B3B"/>
<stop offset="1" stop-color="#F9BF4E" stop-opacity="0.8"/>
</linearGradient>
</defs>
</svg>
