<svg width="1280" height="400" viewBox="0 0 1280 400" fill="none" xmlns="http://www.w3.org/2000/svg">
<rect width="1280" height="400" rx="1" fill="#CA39AA"/>
<g clip-path="url(#clip0_55_1578)">
<path d="M163.274 67.7727L186.157 60.8878C186.981 60.639 187.847 60.5593 188.706 60.6533C189.564 60.7473 190.399 61.013 191.162 61.4354C191.924 61.8578 192.6 62.4285 193.15 63.1148C193.7 63.8011 194.114 64.5896 194.367 65.4351L201.155 87.9958C201.41 88.8409 201.501 89.7267 201.42 90.6026C201.34 91.4785 201.092 92.3273 200.689 93.1003C200.286 93.8734 199.737 94.5556 199.072 95.1078C198.408 95.6601 197.642 96.0716 196.817 96.3188L173.935 103.204C173.111 103.452 172.245 103.532 171.386 103.438C170.527 103.344 169.693 103.078 168.93 102.656C168.167 102.234 167.492 101.663 166.942 100.977C166.392 100.29 165.978 99.5019 165.724 98.6563L158.936 76.0956C158.681 75.2505 158.591 74.3647 158.671 73.4888C158.751 72.6129 159 71.7642 159.403 70.9911C159.805 70.2181 160.355 69.5359 161.019 68.9836C161.684 68.4314 162.45 68.0199 163.274 67.7727Z" fill="#000B1D"/>
<path d="M179.901 93.8738C181.94 93.2605 183.095 91.1109 182.482 89.0726L181.371 85.3819L177.68 86.4924C175.642 87.1057 174.487 89.2552 175.1 91.2936C175.714 93.3319 177.863 94.4871 179.901 93.8738Z" fill="#0ACF83"/>
<path d="M172.88 83.9121C172.266 81.8738 173.421 79.7242 175.46 79.1109L179.15 78.0005L181.371 85.3819L177.681 86.4924C175.642 87.1057 173.493 85.9504 172.88 83.9121Z" fill="#A259FF"/>
<path d="M170.658 76.5307C170.045 74.4924 171.2 72.3428 173.239 71.7295L176.929 70.619L179.15 78.0005L175.46 79.111C173.421 79.7243 171.272 78.569 170.658 76.5307Z" fill="#F24E1E"/>
<path d="M176.93 70.619L180.62 69.5085C182.659 68.8952 184.808 70.0504 185.422 72.0888C186.035 74.1271 184.88 76.2767 182.841 76.89L179.151 78.0004L176.93 70.619Z" fill="#FF7262"/>
<path d="M187.642 79.4702C188.256 81.5086 187.1 83.6581 185.062 84.2714C183.024 84.8847 180.874 83.7295 180.261 81.6912C179.648 79.6528 180.803 77.5033 182.841 76.89C184.879 76.2767 187.029 77.4319 187.642 79.4702Z" fill="#1ABCFE"/>
</g>
<rect x="1049.08" y="63" width="126" height="45" rx="22.5" transform="rotate(12.9439 1049.08 63)" fill="#191717"/>
<path d="M1074.88 97.6605L1073.44 97.3281L1075.12 90.0216L1068.6 96.2164L1067.15 95.884L1069.41 86.0601L1070.86 86.3925L1069.18 93.6922L1075.69 87.5042L1077.14 87.8366L1074.88 97.6605ZM1076.78 98.0966L1078.47 90.7287L1079.9 91.0564L1079.21 94.0649L1082.8 94.8913L1083.49 91.8827L1084.92 92.2104L1083.23 99.5783L1081.8 99.2506L1082.49 96.2352L1078.9 95.4089L1078.21 98.4243L1076.78 98.0966ZM1087.04 100.456L1088.44 94.3704L1085.93 93.7918L1086.22 92.5093L1092.68 93.9942L1092.39 95.2767L1089.87 94.6981L1088.47 100.783L1087.04 100.456ZM1095.5 102.616C1094.77 102.447 1094.16 102.14 1093.68 101.694C1093.21 101.245 1092.88 100.698 1092.7 100.054C1092.53 99.4063 1092.53 98.7027 1092.71 97.9432C1092.89 97.1381 1093.2 96.4745 1093.64 95.9523C1094.08 95.431 1094.61 95.0712 1095.22 94.8727C1095.84 94.6741 1096.5 94.6575 1097.22 94.8226C1097.97 94.9951 1098.57 95.3171 1099.02 95.7885C1099.47 96.2554 1099.75 96.8393 1099.86 97.5402C1099.98 98.2421 1099.91 99.0279 1099.65 99.8977L1098.22 99.57L1098.34 99.0515C1098.53 98.1944 1098.51 97.5246 1098.29 97.0421C1098.07 96.5606 1097.63 96.2457 1096.99 96.0972C1096.27 95.9331 1095.69 96.0349 1095.22 96.4026C1094.76 96.7703 1094.43 97.3794 1094.24 98.2299C1094.05 99.0394 1094.08 99.7083 1094.34 100.237C1094.6 100.76 1095.07 101.1 1095.74 101.256C1096.19 101.358 1096.6 101.347 1096.97 101.221C1097.34 101.091 1097.66 100.859 1097.93 100.523L1099.23 101.288C1098.79 101.882 1098.24 102.293 1097.57 102.523C1096.91 102.749 1096.22 102.78 1095.5 102.616ZM1093.68 98.5257L1093.93 97.4137L1099.19 98.6226L1098.94 99.7347L1093.68 98.5257ZM1103.84 104.531C1103.13 104.369 1102.58 104.062 1102.18 103.611C1101.78 103.156 1101.53 102.607 1101.42 101.963C1101.31 101.32 1101.34 100.63 1101.5 99.8935C1101.67 99.1567 1101.95 98.5227 1102.32 97.9914C1102.7 97.4611 1103.17 97.0821 1103.72 96.8542C1104.27 96.6229 1104.9 96.5872 1105.6 96.7471C1106.29 96.906 1106.84 97.2135 1107.27 97.6696C1107.69 98.1222 1107.98 98.6732 1108.11 99.3226C1108.25 99.9675 1108.24 100.661 1108.07 101.402C1107.9 102.139 1107.61 102.771 1107.2 103.3C1106.8 103.825 1106.31 104.2 1105.73 104.427C1105.15 104.654 1104.52 104.688 1103.84 104.531ZM1099.66 106.804L1102.11 96.1615L1103.38 96.4531L1102.16 101.754L1102.33 101.792L1101.1 107.133L1099.66 106.804ZM1103.93 103.196C1104.39 103.3 1104.79 103.271 1105.14 103.107C1105.49 102.944 1105.79 102.683 1106.02 102.326C1106.26 101.964 1106.44 101.54 1106.55 101.054C1106.66 100.572 1106.69 100.118 1106.63 99.6922C1106.57 99.2676 1106.42 98.9043 1106.17 98.6024C1105.92 98.3004 1105.55 98.095 1105.08 97.9863C1104.64 97.8839 1104.24 97.9083 1103.9 98.0597C1103.56 98.2122 1103.28 98.4678 1103.05 98.8265C1102.82 99.1863 1102.65 99.6209 1102.53 100.13C1102.42 100.64 1102.38 101.106 1102.43 101.528C1102.48 101.951 1102.62 102.307 1102.87 102.598C1103.11 102.889 1103.47 103.088 1103.93 103.196ZM1111.49 109.305L1112.16 106.365C1111.42 106.314 1110.78 106.086 1110.26 105.683C1109.73 105.28 1109.37 104.736 1109.16 104.052C1108.95 103.367 1108.95 102.573 1109.16 101.668C1109.37 100.763 1109.72 100.045 1110.2 99.5151C1110.69 98.9851 1111.25 98.6533 1111.9 98.5198C1112.55 98.3863 1113.22 98.459 1113.91 98.7379L1114.43 96.5071L1115.71 96.8018L1115.2 99.0327C1115.94 99.0841 1116.58 99.3115 1117.1 99.7146C1117.63 100.118 1117.99 100.664 1118.2 101.353C1118.4 102.042 1118.4 102.839 1118.19 103.744C1117.99 104.649 1117.64 105.364 1117.15 105.889C1116.67 106.415 1116.1 106.744 1115.46 106.878C1114.81 107.011 1114.14 106.939 1113.44 106.66L1112.77 109.6L1111.49 109.305ZM1112.46 105.076L1113.62 100.034C1113.26 99.8858 1112.93 99.8203 1112.61 99.8377C1112.29 99.8562 1112 99.9505 1111.74 100.121C1111.49 100.286 1111.26 100.529 1111.07 100.849C1110.87 101.164 1110.73 101.548 1110.62 102.003C1110.52 102.458 1110.48 102.869 1110.52 103.236C1110.56 103.605 1110.66 103.922 1110.82 104.19C1110.99 104.454 1111.21 104.663 1111.49 104.817C1111.77 104.967 1112.09 105.053 1112.46 105.076ZM1113.74 105.37C1114.08 105.511 1114.41 105.574 1114.72 105.561C1115.04 105.547 1115.33 105.457 1115.59 105.293C1115.86 105.129 1116.09 104.89 1116.28 104.575C1116.48 104.256 1116.63 103.867 1116.73 103.408C1116.84 102.944 1116.88 102.529 1116.84 102.161C1116.81 101.79 1116.71 101.473 1116.55 101.211C1116.39 100.945 1116.17 100.736 1115.89 100.585C1115.61 100.435 1115.28 100.35 1114.9 100.329L1113.74 105.37ZM1122.07 108.722C1121.34 108.554 1120.73 108.247 1120.25 107.801C1119.78 107.351 1119.45 106.805 1119.27 106.16C1119.1 105.513 1119.1 104.809 1119.28 104.05C1119.46 103.245 1119.77 102.581 1120.21 102.059C1120.65 101.538 1121.18 101.178 1121.79 100.979C1122.41 100.781 1123.07 100.764 1123.79 100.929C1124.54 101.102 1125.14 101.424 1125.59 101.895C1126.04 102.362 1126.32 102.946 1126.43 103.647C1126.54 104.349 1126.47 105.135 1126.22 106.004L1124.79 105.677L1124.91 105.158C1125.1 104.301 1125.08 103.631 1124.86 103.149C1124.64 102.667 1124.2 102.352 1123.56 102.204C1122.84 102.04 1122.25 102.141 1121.79 102.509C1121.33 102.877 1121 103.486 1120.8 104.336C1120.62 105.146 1120.65 105.815 1120.91 106.343C1121.17 106.867 1121.64 107.207 1122.31 107.362C1122.76 107.465 1123.17 107.453 1123.54 107.327C1123.91 107.198 1124.23 106.965 1124.5 106.63L1125.8 107.395C1125.36 107.988 1124.81 108.4 1124.14 108.63C1123.48 108.856 1122.79 108.886 1122.07 108.722ZM1120.25 104.632L1120.5 103.52L1125.76 104.729L1125.51 105.841L1120.25 104.632ZM1132.17 102.179C1131.81 102.097 1131.5 101.932 1131.24 101.686C1130.99 101.441 1130.8 101.15 1130.7 100.813C1130.59 100.477 1130.57 100.127 1130.66 99.7631L1131.79 100.023C1131.74 100.251 1131.77 100.465 1131.9 100.667C1132.03 100.868 1132.2 100.995 1132.43 101.047C1132.66 101.1 1132.88 101.063 1133.07 100.936C1133.27 100.81 1133.4 100.633 1133.45 100.406L1134.59 100.666C1134.5 101.03 1134.34 101.339 1134.09 101.594C1133.85 101.849 1133.55 102.031 1133.21 102.139C1132.88 102.249 1132.53 102.262 1132.17 102.179ZM1134.89 103.696L1133.2 111.064L1131.83 110.749L1133.01 105.626L1128.15 109.903L1126.99 109.636L1128.68 102.268L1130.05 102.583L1128.9 107.604L1133.74 103.431L1134.89 103.696ZM1138.21 112.432C1137.46 112.258 1136.86 111.942 1136.4 111.485C1135.95 111.027 1135.66 110.472 1135.51 109.821C1135.37 109.17 1135.38 108.471 1135.55 107.725C1135.72 106.966 1136.02 106.329 1136.44 105.812C1136.87 105.292 1137.38 104.926 1137.99 104.717C1138.6 104.507 1139.27 104.488 1140.02 104.659C1140.83 104.844 1141.47 105.202 1141.94 105.733C1142.42 106.265 1142.68 106.9 1142.7 107.637L1141.18 107.721C1141.14 107.274 1140.98 106.9 1140.71 106.599C1140.44 106.294 1140.11 106.093 1139.69 105.998C1139.22 105.891 1138.81 105.914 1138.46 106.068C1138.11 106.217 1137.82 106.466 1137.59 106.815C1137.35 107.163 1137.18 107.582 1137.06 108.073C1136.89 108.833 1136.92 109.487 1137.16 110.034C1137.39 110.582 1137.85 110.933 1138.52 111.088C1138.98 111.193 1139.38 111.174 1139.71 111.029C1140.04 110.882 1140.33 110.627 1140.57 110.266L1141.94 110.939C1141.53 111.603 1141.01 112.064 1140.36 112.323C1139.72 112.577 1139 112.614 1138.21 112.432Z" fill="white"/>
<rect x="135" y="324.78" width="128" height="45" rx="22.5" transform="rotate(-19.5251 135 324.78)" fill="white" fill-opacity="0.1"/>
<path d="M167.902 342.821L164.533 333.321L168.267 331.997C168.87 331.783 169.419 331.727 169.915 331.828C170.412 331.929 170.833 332.139 171.178 332.457C171.522 332.771 171.771 333.143 171.924 333.574C172.109 334.098 172.139 334.592 172.012 335.058C171.889 335.523 171.634 335.9 171.247 336.191L171.119 335.872C171.779 335.807 172.349 335.934 172.829 336.254C173.307 336.569 173.649 337.015 173.853 337.591C174.051 338.15 174.111 338.676 174.034 339.169C173.96 339.66 173.752 340.098 173.408 340.483C173.067 340.861 172.595 341.157 171.992 341.371L167.902 342.821ZM168.835 341.012L171.316 340.133C171.628 340.022 171.886 339.863 172.09 339.657C172.299 339.45 172.435 339.211 172.497 338.941C172.563 338.665 172.541 338.374 172.432 338.066C172.331 337.78 172.176 337.545 171.967 337.362C171.761 337.172 171.516 337.054 171.232 337.006C170.95 336.952 170.651 336.981 170.334 337.094L167.768 338.004L168.835 341.012ZM167.307 336.704L169.623 335.883C169.878 335.793 170.089 335.661 170.255 335.488C170.424 335.309 170.534 335.102 170.584 334.866C170.637 334.625 170.615 334.365 170.516 334.088C170.385 333.719 170.155 333.459 169.824 333.309C169.494 333.159 169.122 333.157 168.708 333.303L166.392 334.125L167.307 336.704ZM178.231 339.381C177.703 339.568 177.227 339.628 176.802 339.561C176.376 339.49 176.013 339.326 175.714 339.07C175.419 338.809 175.202 338.485 175.065 338.097C174.937 337.737 174.889 337.398 174.919 337.08C174.95 336.762 175.057 336.464 175.241 336.186C175.423 335.903 175.676 335.638 175.999 335.39C176.283 335.185 176.612 334.977 176.987 334.764C177.363 334.552 177.759 334.337 178.177 334.119C178.6 333.9 179.018 333.683 179.431 333.467L179.028 333.922C178.839 333.36 178.574 332.989 178.232 332.808C177.894 332.621 177.427 332.633 176.834 332.843C176.46 332.976 176.148 333.185 175.898 333.472C175.647 333.754 175.53 334.117 175.549 334.561L174.122 334.622C174.081 333.948 174.243 333.343 174.608 332.808C174.977 332.271 175.573 331.857 176.395 331.565C177.033 331.339 177.626 331.253 178.175 331.306C178.726 331.353 179.195 331.572 179.582 331.965C179.779 332.158 179.937 332.379 180.055 332.629C180.174 332.879 180.286 333.154 180.392 333.453L181.948 337.84L180.727 338.273L180.149 336.644L180.462 336.77C180.36 337.42 180.129 337.961 179.766 338.391C179.407 338.816 178.895 339.146 178.231 339.381ZM178.075 338.166C178.467 338.028 178.779 337.84 179.012 337.604C179.244 337.363 179.407 337.105 179.502 336.829C179.597 336.552 179.63 336.288 179.6 336.036C179.6 335.799 179.557 335.546 179.473 335.279C179.392 335.011 179.324 334.797 179.268 334.639L179.775 334.645C179.363 334.865 178.988 335.065 178.65 335.244C178.313 335.423 178.008 335.591 177.737 335.746C177.468 335.896 177.234 336.046 177.035 336.196C176.869 336.329 176.728 336.468 176.611 336.613C176.498 336.757 176.422 336.911 176.381 337.074C176.344 337.236 176.359 337.411 176.426 337.6C176.491 337.785 176.598 337.94 176.747 338.065C176.894 338.187 177.078 338.26 177.3 338.285C177.522 338.311 177.78 338.271 178.075 338.166ZM184.024 328.162C183.677 328.285 183.327 328.312 182.976 328.244C182.63 328.174 182.32 328.026 182.047 327.801C181.774 327.576 181.575 327.287 181.45 326.936L182.545 326.547C182.623 326.767 182.77 326.928 182.984 327.03C183.199 327.133 183.416 327.145 183.636 327.067C183.86 326.987 184.021 326.841 184.119 326.628C184.221 326.413 184.233 326.196 184.155 325.976L185.25 325.588C185.375 325.94 185.403 326.289 185.332 326.636C185.262 326.983 185.112 327.293 184.883 327.568C184.658 327.841 184.372 328.039 184.024 328.162ZM187.138 327.979L189.665 335.104L188.339 335.574L186.582 330.619L184.776 336.837L183.654 337.235L181.128 330.11L182.454 329.64L184.176 334.495L186.023 328.374L187.138 327.979ZM194.923 333.462C194.242 333.704 193.611 333.741 193.033 333.575C192.452 333.405 191.943 333.078 191.504 332.595C191.065 332.112 190.72 331.514 190.467 330.801C190.214 330.089 190.104 329.407 190.136 328.757C190.172 328.106 190.361 327.536 190.703 327.048C191.048 326.555 191.557 326.189 192.23 325.95C192.899 325.713 193.533 325.674 194.134 325.832C194.738 325.984 195.272 326.297 195.737 326.771C196.201 327.241 196.56 327.834 196.814 328.551C197.066 329.263 197.162 329.952 197.101 330.617C197.043 331.277 196.83 331.857 196.463 332.359C196.101 332.859 195.588 333.226 194.923 333.462ZM192.625 337.619L188.975 327.327L190.202 326.892L192.02 332.018L192.178 331.962L194.01 337.128L192.625 337.619ZM194.29 332.283C194.73 332.127 195.053 331.886 195.259 331.56C195.47 331.233 195.579 330.855 195.585 330.427C195.595 329.993 195.516 329.541 195.349 329.07C195.184 328.604 194.961 328.207 194.682 327.88C194.407 327.552 194.083 327.328 193.709 327.208C193.334 327.088 192.918 327.11 192.461 327.272C192.03 327.425 191.711 327.657 191.505 327.968C191.302 328.277 191.2 328.645 191.198 329.072C191.2 329.497 191.289 329.955 191.463 330.448C191.638 330.941 191.858 331.353 192.124 331.684C192.39 332.016 192.705 332.238 193.067 332.353C193.429 332.467 193.837 332.443 194.29 332.283ZM203.94 333.384L202.932 330.54C202.276 330.897 201.618 331.046 200.959 330.987C200.3 330.929 199.699 330.667 199.157 330.2C198.616 329.734 198.19 329.063 197.879 328.188C197.569 327.312 197.476 326.521 197.602 325.813C197.727 325.105 198.027 324.521 198.503 324.06C198.978 323.599 199.583 323.301 200.316 323.164L199.551 321.007L200.792 320.567L201.557 322.724C202.213 322.368 202.87 322.219 203.53 322.277C204.189 322.336 204.791 322.6 205.334 323.071C205.877 323.542 206.304 324.215 206.614 325.09C206.925 325.965 207.016 326.755 206.89 327.458C206.763 328.162 206.462 328.744 205.986 329.205C205.511 329.665 204.906 329.964 204.172 330.1L205.181 332.944L203.94 333.384ZM202.49 329.293L200.761 324.418C200.383 324.482 200.064 324.608 199.803 324.795C199.547 324.98 199.355 325.213 199.227 325.496C199.098 325.775 199.038 326.101 199.047 326.474C199.054 326.843 199.135 327.247 199.291 327.687C199.447 328.127 199.639 328.492 199.865 328.783C200.097 329.072 200.353 329.286 200.635 329.424C200.919 329.556 201.219 329.613 201.535 329.595C201.849 329.573 202.167 329.472 202.49 329.293ZM203.73 328.853C204.094 328.789 204.404 328.666 204.662 328.486C204.92 328.305 205.115 328.075 205.249 327.795C205.387 327.513 205.452 327.188 205.445 326.819C205.441 326.444 205.36 326.035 205.202 325.591C205.043 325.142 204.85 324.772 204.623 324.481C204.395 324.186 204.143 323.971 203.867 323.836C203.59 323.697 203.292 323.639 202.974 323.663C202.66 323.685 202.336 323.79 202.001 323.978L203.73 328.853ZM212.744 327.142C212.063 327.384 211.432 327.422 210.854 327.256C210.273 327.085 209.764 326.758 209.325 326.275C208.886 325.792 208.541 325.194 208.288 324.482C208.035 323.769 207.925 323.088 207.957 322.438C207.993 321.786 208.182 321.217 208.524 320.729C208.869 320.235 209.378 319.869 210.051 319.631C210.719 319.393 211.354 319.354 211.955 319.512C212.559 319.665 213.093 319.978 213.558 320.452C214.022 320.921 214.38 321.514 214.635 322.231C214.887 322.944 214.983 323.633 214.922 324.298C214.864 324.957 214.651 325.538 214.284 326.039C213.922 326.539 213.408 326.907 212.744 327.142ZM210.446 331.3L206.796 321.008L208.023 320.572L209.841 325.699L209.999 325.643L211.831 330.808L210.446 331.3ZM212.111 325.963C212.551 325.807 212.874 325.566 213.08 325.241C213.291 324.913 213.4 324.536 213.406 324.108C213.416 323.673 213.337 323.221 213.17 322.751C213.005 322.284 212.782 321.888 212.503 321.561C212.228 321.233 211.904 321.009 211.529 320.889C211.155 320.769 210.739 320.79 210.282 320.952C209.851 321.105 209.532 321.337 209.325 321.648C209.123 321.957 209.021 322.325 209.019 322.752C209.021 323.177 209.109 323.636 209.284 324.128C209.459 324.621 209.679 325.033 209.945 325.365C210.211 325.696 210.526 325.919 210.888 326.033C211.25 326.147 211.658 326.124 212.111 325.963ZM220.587 324.361C219.879 324.612 219.202 324.679 218.557 324.561C217.914 324.438 217.344 324.152 216.849 323.704C216.356 323.25 215.979 322.655 215.719 321.921C215.443 321.142 215.349 320.416 215.436 319.741C215.528 319.065 215.78 318.478 216.193 317.98C216.606 317.482 217.159 317.11 217.854 316.863C218.58 316.606 219.258 316.556 219.888 316.714C220.517 316.867 221.067 317.21 221.537 317.741C222.012 318.271 222.375 318.971 222.625 319.843L221.246 320.332L221.068 319.831C220.766 319.007 220.391 318.452 219.943 318.165C219.499 317.877 218.964 317.844 218.34 318.065C217.649 318.31 217.208 318.712 217.015 319.27C216.821 319.829 216.871 320.52 217.162 321.342C217.44 322.125 217.829 322.67 218.329 322.978C218.828 323.282 219.405 323.317 220.061 323.085C220.492 322.932 220.829 322.703 221.073 322.399C221.319 322.089 221.466 321.72 221.512 321.293L223.017 321.242C222.966 321.978 222.721 322.622 222.283 323.173C221.843 323.72 221.278 324.116 220.587 324.361ZM216.852 321.89L216.471 320.815L221.557 319.011L221.938 320.087L216.852 321.89ZM225.593 313.421C225.246 313.544 224.897 313.571 224.545 313.503C224.199 313.433 223.889 313.285 223.616 313.06C223.343 312.835 223.144 312.546 223.019 312.195L224.115 311.806C224.193 312.026 224.339 312.187 224.553 312.289C224.768 312.392 224.985 312.404 225.205 312.326C225.429 312.246 225.59 312.1 225.688 311.887C225.79 311.672 225.802 311.455 225.724 311.235L226.82 310.847C226.944 311.199 226.972 311.548 226.902 311.895C226.831 312.242 226.682 312.552 226.452 312.827C226.227 313.1 225.941 313.298 225.593 313.421ZM228.707 313.238L231.234 320.363L229.908 320.833L228.151 315.878L226.345 322.096L225.224 322.494L222.697 315.369L224.023 314.899L225.745 319.754L227.592 313.633L228.707 313.238ZM233.071 319.711L230.544 312.586L231.699 312.177L236.184 316.468L236.957 310.312L238.118 309.9L240.645 317.026L239.312 317.498L237.787 313.197L237.168 318.259L236.541 318.481L232.872 314.94L234.397 319.241L233.071 319.711Z" fill="white"/>
<rect x="294.5" y="91.5" width="691" height="190" stroke="#90BCFD"/>
<rect x="285" y="82" width="10" height="10" stroke="#696FFF"/>
<rect x="285" y="82" width="10" height="10" fill="white"/>
<rect x="285" y="281" width="10" height="10" stroke="#696FFF"/>
<rect x="285" y="281" width="10" height="10" fill="white"/>
<g clip-path="url(#clip1_55_1578)">
<path d="M940.181 333.313C940.552 333.236 940.935 333.374 941.17 333.671L944.63 338.036C944.639 338.046 944.648 338.057 944.656 338.068L946.726 340.68C947.069 341.113 946.997 341.742 946.564 342.085C946.131 342.428 945.502 342.355 945.159 341.922L943.459 339.778L939.775 340.551L939.08 343.197C938.94 343.731 938.393 344.05 937.859 343.91C937.325 343.769 937.005 343.223 937.146 342.689L937.993 339.466C937.996 339.452 938 339.438 938.003 339.425L939.419 334.038C939.515 333.672 939.81 333.391 940.181 333.313ZM940.344 338.388L942.07 338.026L940.845 336.481L940.344 338.388Z" fill="#F9F016"/>
<path d="M944.822 326.21C944.709 325.669 945.055 325.139 945.596 325.026L949.511 324.205C950.051 324.092 950.581 324.438 950.694 324.979L951.515 328.894C951.629 329.434 951.282 329.964 950.742 330.078L949.763 330.283L952.225 342.027L953.204 341.822C953.745 341.709 954.275 342.055 954.388 342.596L955.209 346.511C955.322 347.051 954.976 347.581 954.435 347.694L950.52 348.515C949.98 348.629 949.45 348.282 949.337 347.742L949.131 346.763L937.387 349.225L937.592 350.204C937.705 350.745 937.359 351.275 936.818 351.388L932.903 352.209C932.363 352.322 931.833 351.976 931.72 351.435L930.899 347.52C930.785 346.98 931.132 346.45 931.672 346.336L932.651 346.131L930.189 334.387L929.21 334.592C928.669 334.705 928.139 334.359 928.026 333.818L927.205 329.903C927.092 329.363 927.438 328.833 927.979 328.72L931.894 327.899C932.434 327.785 932.964 328.132 933.078 328.672L933.283 329.651L945.027 327.189L944.822 326.21ZM931.325 330.061L929.368 330.472L929.778 332.429L931.736 332.019L931.325 330.061ZM932.146 333.976L934.608 345.721L935.587 345.516C936.128 345.402 936.658 345.749 936.771 346.289L936.976 347.268L948.721 344.806L948.516 343.827C948.402 343.286 948.749 342.756 949.289 342.643L950.268 342.438L947.806 330.693L946.827 330.898C946.286 331.012 945.756 330.665 945.643 330.125L945.438 329.146L933.693 331.608L933.898 332.587C934.012 333.128 933.665 333.658 933.125 333.771L932.146 333.976ZM935.224 348.657L935.019 347.678L933.061 348.089L933.472 350.046L935.429 349.636L935.224 348.657ZM951.089 346.353L953.046 345.942L952.636 343.985L950.678 344.395L951.089 346.353ZM949.353 328.325L948.942 326.368L946.985 326.778L947.395 328.736L949.353 328.325Z" fill="#F9F016"/>
</g>
<g clip-path="url(#clip2_55_1578)">
<path d="M1083.15 265.542C1085.96 261.441 1085.48 255.014 1081.38 252.206C1077.28 249.397 1071.11 251.27 1068.3 255.372" stroke="#1FF928" stroke-width="2" stroke-linecap="round" stroke-linejoin="round"/>
<path d="M1080.86 249.426L1076.73 246.601" stroke="#1FF928" stroke-width="2" stroke-linecap="round" stroke-linejoin="round"/>
<path d="M1088.28 254.511L1084.16 251.686" stroke="#1FF928" stroke-width="2" stroke-linecap="round" stroke-linejoin="round"/>
<path d="M1081.38 252.206C1082.29 252.83 1083.53 252.597 1084.16 251.686C1084.78 250.774 1084.55 249.53 1083.64 248.906C1082.73 248.281 1081.48 248.514 1080.86 249.426C1080.23 250.337 1080.47 251.582 1081.38 252.206Z" stroke="#1FF928" stroke-width="2" stroke-linecap="round" stroke-linejoin="round"/>
<path d="M1085.29 250.036L1081.99 247.776L1079.73 251.076L1083.03 253.336L1085.29 250.036Z" stroke="#1FF928" stroke-width="2" stroke-linecap="round" stroke-linejoin="round"/>
<path d="M1091.6 254.968L1089.13 253.273L1087.43 255.748L1089.91 257.444L1091.6 254.968Z" stroke="#1FF928" stroke-width="2" stroke-linecap="round" stroke-linejoin="round"/>
<path d="M1077.58 245.363L1075.1 243.668L1073.41 246.143L1075.88 247.838L1077.58 245.363Z" stroke="#1FF928" stroke-width="2" stroke-linecap="round" stroke-linejoin="round"/>
</g>
<path d="M110 209C110 208.448 110.448 208 111 208H129C129.552 208 130 208.448 130 209C130 209.552 129.552 210 129 210H111C110.448 210 110 209.552 110 209Z" fill="#FFC659"/>
<path d="M119.862 188.791C120.252 188.4 120.885 188.4 121.276 188.791L130.18 197.694C130.57 198.085 130.57 198.718 130.18 199.109L125.23 204.058C124.84 204.449 124.206 204.449 123.816 204.058L123.607 203.849L120.778 206.678C120.388 207.068 119.754 207.068 119.364 206.678L117.971 205.284L114.119 206.238H110.119L113.559 200.873L112.293 199.607C111.902 199.216 111.902 198.583 112.293 198.192L115.121 195.364L114.912 195.155C114.521 194.764 114.521 194.131 114.912 193.74L119.862 188.791ZM116.536 196.778L114.414 198.9L120.071 204.556L122.193 202.435L116.536 196.778ZM120.569 190.912L117.033 194.447L124.523 201.937L128.059 198.402L120.569 190.912Z" fill="#FAFAFA"/>
<path d="M350.846 223.5C345.213 223.5 340.23 222.35 335.896 220.05C331.596 217.717 328.23 214.467 325.796 210.3C323.363 206.1 322.146 201.167 322.146 195.5V150.05L332.746 150V194.95C332.746 198.017 333.263 200.717 334.296 203.05C335.33 205.383 336.713 207.333 338.446 208.9C340.18 210.467 342.113 211.65 344.246 212.45C346.413 213.25 348.613 213.65 350.846 213.65C353.113 213.65 355.313 213.25 357.446 212.45C359.613 211.617 361.563 210.417 363.296 208.85C365.03 207.283 366.396 205.333 367.396 203C368.43 200.667 368.946 197.983 368.946 194.95V150H379.546V195.5C379.546 201.133 378.33 206.05 375.896 210.25C373.463 214.45 370.08 217.717 365.746 220.05C361.446 222.35 356.48 223.5 350.846 223.5ZM387.533 222L412.083 185.55L388.183 150H400.983L418.533 176.7L435.983 150H448.833L424.933 185.55L449.433 222H436.633L418.533 194.45L400.383 222H387.533ZM479.604 150H490.154L470.954 222H460.404L479.604 150ZM531.901 223.5C526.268 223.5 521.285 222.35 516.951 220.05C512.651 217.717 509.285 214.467 506.851 210.3C504.418 206.1 503.201 201.167 503.201 195.5V150.05L513.801 150V194.95C513.801 198.017 514.318 200.717 515.351 203.05C516.385 205.383 517.768 207.333 519.501 208.9C521.235 210.467 523.168 211.65 525.301 212.45C527.468 213.25 529.668 213.65 531.901 213.65C534.168 213.65 536.368 213.25 538.501 212.45C540.668 211.617 542.618 210.417 544.351 208.85C546.085 207.283 547.451 205.333 548.451 203C549.485 200.667 550.001 197.983 550.001 194.95V150H560.601V195.5C560.601 201.133 559.385 206.05 556.951 210.25C554.518 214.45 551.135 217.717 546.801 220.05C542.501 222.35 537.535 223.5 531.901 223.5ZM575.588 222V150H586.038V222H575.588ZM617.072 234V213.6C620.039 213.6 622.156 212.617 623.422 210.65C624.722 208.65 625.756 205.267 626.522 200.5C626.989 197.6 627.372 194.517 627.672 191.25C628.006 187.983 628.289 184.45 628.522 180.65C628.756 176.817 628.989 172.6 629.222 168H667.922V213.6H673.222V234H663.322V222H627.022V234H617.072ZM632.022 213.6H657.422V176.4H638.522C638.389 178.6 638.239 180.867 638.072 183.2C637.939 185.533 637.772 187.85 637.572 190.15C637.406 192.45 637.206 194.65 636.972 196.75C636.739 198.85 636.472 200.75 636.172 202.45C635.772 205.083 635.289 207.283 634.722 209.05C634.189 210.817 633.289 212.333 632.022 213.6ZM728.682 168V222H718.632V184.45L691.632 222H683.132V168H693.182V204.8L720.232 168H728.682ZM761.904 223.5C756.671 223.5 751.971 222.383 747.804 220.15C743.671 217.917 740.404 214.833 738.004 210.9L746.304 205.45C748.238 208.05 750.471 210.067 753.004 211.5C755.571 212.933 758.454 213.65 761.654 213.65C764.988 213.65 767.621 212.9 769.554 211.4C771.521 209.867 772.504 207.817 772.504 205.25C772.504 203.217 771.938 201.717 770.804 200.75C769.704 199.75 768.171 199.1 766.204 198.8C764.271 198.5 762.071 198.35 759.604 198.35H754.804V189.95H759.604C762.871 189.95 765.554 189.5 767.654 188.6C769.788 187.667 770.854 185.917 770.854 183.35C770.854 180.85 769.938 179.05 768.104 177.95C766.304 176.85 764.154 176.3 761.654 176.3C758.854 176.3 756.138 176.9 753.504 178.1C750.871 179.267 748.571 180.717 746.604 182.45L740.504 175.3C743.371 172.533 746.638 170.383 750.304 168.85C754.004 167.283 757.971 166.5 762.204 166.5C765.671 166.5 768.871 167.117 771.804 168.35C774.771 169.55 777.138 171.333 778.904 173.7C780.704 176.067 781.604 178.983 781.604 182.45C781.604 185.15 781.004 187.617 779.804 189.85C778.604 192.083 776.771 194.117 774.304 195.95L774.004 192.4C776.038 193.033 777.738 194.05 779.104 195.45C780.471 196.85 781.488 198.5 782.154 200.4C782.854 202.267 783.204 204.25 783.204 206.35C783.204 209.983 782.238 213.083 780.304 215.65C778.404 218.217 775.838 220.167 772.604 221.5C769.371 222.833 765.804 223.5 761.904 223.5ZM809.467 223.5C805.467 223.5 802.117 222.767 799.417 221.3C796.717 219.8 794.667 217.833 793.267 215.4C791.9 212.933 791.217 210.233 791.217 207.3C791.217 204.567 791.7 202.167 792.667 200.1C793.633 198.033 795.067 196.283 796.967 194.85C798.867 193.383 801.2 192.2 803.967 191.3C806.367 190.6 809.083 189.983 812.117 189.45C815.15 188.917 818.333 188.417 821.667 187.95C825.033 187.483 828.367 187.017 831.667 186.55L827.867 188.65C827.933 184.417 827.033 181.283 825.167 179.25C823.333 177.183 820.167 176.15 815.667 176.15C812.833 176.15 810.233 176.817 807.867 178.15C805.5 179.45 803.85 181.617 802.917 184.65L793.167 181.65C794.5 177.017 797.033 173.333 800.767 170.6C804.533 167.867 809.533 166.5 815.767 166.5C820.6 166.5 824.8 167.333 828.367 169C831.967 170.633 834.6 173.233 836.267 176.8C837.133 178.567 837.667 180.433 837.867 182.4C838.067 184.367 838.167 186.483 838.167 188.75V222H828.917V209.65L830.717 211.25C828.483 215.383 825.633 218.467 822.167 220.5C818.733 222.5 814.5 223.5 809.467 223.5ZM811.317 214.95C814.283 214.95 816.833 214.433 818.967 213.4C821.1 212.333 822.817 210.983 824.117 209.35C825.417 207.717 826.267 206.017 826.667 204.25C827.233 202.65 827.55 200.85 827.617 198.85C827.717 196.85 827.767 195.25 827.767 194.05L831.167 195.3C827.867 195.8 824.867 196.25 822.167 196.65C819.467 197.05 817.017 197.45 814.817 197.85C812.65 198.217 810.717 198.667 809.017 199.2C807.583 199.7 806.3 200.3 805.167 201C804.067 201.7 803.183 202.55 802.517 203.55C801.883 204.55 801.567 205.767 801.567 207.2C801.567 208.6 801.917 209.9 802.617 211.1C803.317 212.267 804.383 213.2 805.817 213.9C807.25 214.6 809.083 214.95 811.317 214.95ZM875.25 161.8C872.617 161.8 870.2 161.15 868 159.85C865.834 158.55 864.1 156.817 862.8 154.65C861.5 152.483 860.85 150.067 860.85 147.4H869.15C869.15 149.067 869.75 150.5 870.95 151.7C872.15 152.9 873.584 153.5 875.25 153.5C876.95 153.5 878.384 152.9 879.55 151.7C880.75 150.5 881.35 149.067 881.35 147.4H889.65C889.65 150.067 889 152.483 887.7 154.65C886.4 156.817 884.65 158.55 882.45 159.85C880.284 161.15 877.884 161.8 875.25 161.8ZM896.65 168V222H886.6V184.45L859.6 222H851.1V168H861.15V204.8L888.2 168H896.65ZM910.573 222V168H921.023V190.05H947.373V168H957.823V222H947.373V199.9H921.023V222H910.573Z" fill="white"/>
<defs>
<clipPath id="clip0_55_1578">
<rect width="37" height="37" fill="white" transform="translate(157 69.6605) rotate(-16.7455)"/>
</clipPath>
<clipPath id="clip1_55_1578">
<rect width="24" height="24" fill="white" transform="translate(927 328.925) rotate(-11.841)"/>
</clipPath>
<clipPath id="clip2_55_1578">
<rect width="24" height="24" fill="white" transform="translate(1076.56 238) rotate(34.4034)"/>
</clipPath>
</defs>
</svg>
