<svg width="60" height="60" viewBox="0 0 60 60" fill="none" xmlns="http://www.w3.org/2000/svg">
<rect width="60" height="60" rx="30" fill="white" fill-opacity="0.1"/>
<g clip-path="url(#clip0_112_716)">
<path d="M38.6667 36.5C39.8638 36.5 40.8225 35.5304 40.8225 34.3333L40.8333 22.4167C40.8333 21.2196 39.8638 20.25 38.6667 20.25H21.3333C20.1363 20.25 19.1667 21.2196 19.1667 22.4167V34.3333C19.1667 35.5304 20.1363 36.5 21.3333 36.5H17C17 37.6971 17.9696 38.6667 19.1667 38.6667H40.8333C42.0304 38.6667 43 37.6971 43 36.5H38.6667ZM21.3333 22.4167H38.6667V34.3333H21.3333V22.4167ZM30 37.5833C29.4042 37.5833 28.9167 37.0958 28.9167 36.5C28.9167 35.9042 29.4042 35.4167 30 35.4167C30.5958 35.4167 31.0833 35.9042 31.0833 36.5C31.0833 37.0958 30.5958 37.5833 30 37.5833Z" fill="#4657F0"/>
</g>
<defs>
<clipPath id="clip0_112_716">
<rect width="26" height="26" fill="white" transform="translate(17 17)"/>
</clipPath>
</defs>
</svg>
