<svg width="60" height="60" viewBox="0 0 60 60" fill="none" xmlns="http://www.w3.org/2000/svg">
<rect width="60" height="60" rx="30" fill="white" fill-opacity="0.1"/>
<path d="M39.75 37.5833C39.75 32.1986 35.3848 26.75 30 26.75C24.6152 26.75 20.25 32.1986 20.25 37.5833" stroke="#CA39AA" stroke-width="2.16667" stroke-linecap="round" stroke-linejoin="round"/>
<path d="M27.8334 24.5833H22.4167" stroke="#CA39AA" stroke-width="2.16667" stroke-linecap="round" stroke-linejoin="round"/>
<path d="M37.5834 24.5833H32.1667" stroke="#CA39AA" stroke-width="2.16667" stroke-linecap="round" stroke-linejoin="round"/>
<path d="M20.7917 26.2083C21.6891 26.2083 22.4167 25.4808 22.4167 24.5833C22.4167 23.6859 21.6891 22.9583 20.7917 22.9583C19.8942 22.9583 19.1667 23.6859 19.1667 24.5833C19.1667 25.4808 19.8942 26.2083 20.7917 26.2083Z" stroke="#CA39AA" stroke-width="2.16667" stroke-linecap="round" stroke-linejoin="round"/>
<path d="M39.2083 26.2083C40.1058 26.2083 40.8333 25.4808 40.8333 24.5833C40.8333 23.6859 40.1058 22.9583 39.2083 22.9583C38.3109 22.9583 37.5833 23.6859 37.5833 24.5833C37.5833 25.4808 38.3109 26.2083 39.2083 26.2083Z" stroke="#CA39AA" stroke-width="2.16667" stroke-linecap="round" stroke-linejoin="round"/>
<path d="M30 26.75C31.1966 26.75 32.1666 25.78 32.1666 24.5834C32.1666 23.3867 31.1966 22.4167 30 22.4167C28.8034 22.4167 27.8333 23.3867 27.8333 24.5834C27.8333 25.78 28.8034 26.75 30 26.75Z" stroke="#CA39AA" stroke-width="2.16667" stroke-linecap="round" stroke-linejoin="round"/>
</svg>
