<svg width="60" height="60" viewBox="0 0 60 60" fill="none" xmlns="http://www.w3.org/2000/svg">
<rect width="60" height="60" rx="30" fill="white" fill-opacity="0.1"/>
<path d="M34.3334 22.4167C33.735 22.4167 33.25 21.9316 33.25 21.3333C33.25 20.735 33.735 20.25 34.3334 20.25H38.6667C39.265 20.25 39.75 20.735 39.75 21.3333V25.6667C39.75 26.265 39.265 26.75 38.6667 26.75C38.0684 26.75 37.5834 26.265 37.5834 25.6667V23.9487L31.8494 29.6827C31.4263 30.1058 30.7404 30.1058 30.3173 29.6827L26.75 26.1154L21.0161 31.8494C20.593 32.2724 19.9071 32.2724 19.484 31.8494C19.0609 31.4263 19.0609 30.7404 19.484 30.3173L25.984 23.8173C26.4071 23.3942 27.093 23.3942 27.5161 23.8173L31.0834 27.3846L36.0513 22.4167H34.3334ZM20.25 38.6667C20.25 38.0684 20.735 37.5833 21.3334 37.5833H38.6667C39.265 37.5833 39.75 38.0684 39.75 38.6667C39.75 39.265 39.265 39.75 38.6667 39.75H21.3334C20.735 39.75 20.25 39.265 20.25 38.6667Z" fill="#58C13E"/>
</svg>
