<svg width="32" height="32" viewBox="0 0 32 32" fill="none" xmlns="http://www.w3.org/2000/svg">
<rect width="32" height="32" rx="16" fill="white"/>
<g clip-path="url(#clip0_162_1273)">
<path d="M8.71875 5H22.2813C22.7697 4.99953 23.2535 5.09786 23.7049 5.28937C24.1563 5.48088 24.5664 5.76181 24.9118 6.11607C25.2572 6.47034 25.5311 6.89099 25.7179 7.35395C25.9046 7.81691 26.0005 8.3131 26 8.8141V22.1859C26.0005 22.6869 25.9046 23.1831 25.7179 23.646C25.5311 24.109 25.2572 24.5297 24.9118 24.8839C24.5664 25.2382 24.1563 25.5191 23.7049 25.7106C23.2535 25.9021 22.7697 26.0005 22.2813 26H8.71875C8.23027 26.0005 7.74649 25.9021 7.2951 25.7106C6.84372 25.5191 6.43358 25.2382 6.08817 24.8839C5.74276 24.5297 5.46886 24.109 5.28214 23.646C5.09542 23.1831 4.99954 22.6869 5 22.1859V8.8141C4.99954 8.3131 5.09542 7.81691 5.28214 7.35395C5.46886 6.89099 5.74276 6.47034 6.08817 6.11607C6.43358 5.76181 6.84372 5.48088 7.2951 5.28937C7.74649 5.09786 8.23027 4.99953 8.71875 5Z" fill="#F0F0F0"/>
<path d="M15.5015 23.6365L10.7778 22.3252L9.72516 10.5186H21.292L20.2382 22.3234L15.5015 23.6365Z" fill="#264DE4"/>
<path d="M19.336 21.5717L20.2365 11.4839H15.5085V22.6328L19.336 21.5717Z" fill="#2965F1"/>
<path d="M12.1383 15.863L12.2681 17.311H15.5085V15.863H12.1383ZM11.8775 12.9321L12.0091 14.3802H15.5085V12.9321H11.8775ZM15.5085 19.6237L15.5022 19.6254L13.8895 19.1899L13.7864 18.0351H12.3328L12.5356 20.3087L15.5018 21.1321L15.5085 21.1303V19.6237Z" fill="#EBEBEB"/>
<path d="M12.4473 7.31006H14.201V8.04349H13.1807V8.77691H14.2011V9.51029H12.4473V7.31006ZM14.5518 7.31006H16.3056V7.94782H15.2853V8.07536H16.3056V9.54221H14.5519V8.87249H15.5723V8.74495H14.5518V7.31006H14.5518ZM16.6564 7.31006H18.4103V7.94782H17.3899V8.07536H18.4103V9.54221H16.6564V8.87249H17.6768V8.74495H16.6565V7.31006H16.6564Z" fill="black"/>
<path d="M18.8695 15.863L19.1309 12.9321H15.5035V14.3802H17.5439L17.4122 15.863H15.5035V17.311H17.2866L17.1185 19.189L15.5035 19.6249V21.1314L18.4721 20.3087L18.4938 20.064L18.8341 16.2518L18.8695 15.863Z" fill="white"/>
</g>
<defs>
<clipPath id="clip0_162_1273">
<rect width="21" height="21" fill="white" transform="translate(5 5)"/>
</clipPath>
</defs>
</svg>
