<svg width="32" height="32" viewBox="0 0 32 32" fill="none" xmlns="http://www.w3.org/2000/svg">
<rect width="32" height="32" rx="16" fill="white"/>
<g clip-path="url(#clip0_72_2352)">
<path d="M15.6786 17.2032C16.6315 17.2032 17.404 16.4407 17.404 15.5002C17.404 14.5596 16.6315 13.7971 15.6786 13.7971C14.7257 13.7971 13.9532 14.5596 13.9532 15.5002C13.9532 16.4407 14.7257 17.2032 15.6786 17.2032Z" fill="#61DAFB"/>
<path fill-rule="evenodd" clip-rule="evenodd" d="M7.41888 14.4371C7.00026 14.8101 6.82439 15.1699 6.82439 15.4998C6.82439 15.8296 7.00026 16.1894 7.41888 16.5624C7.83746 16.9354 8.4658 17.2895 9.27657 17.5951C10.8953 18.2051 13.1589 18.5908 15.6791 18.5908C18.1994 18.5908 20.4629 18.2051 22.0817 17.5951C22.8924 17.2895 23.5208 16.9354 23.9394 16.5624C24.358 16.1894 24.5338 15.8296 24.5338 15.4998C24.5338 15.1699 24.358 14.8101 23.9394 14.4371C23.5208 14.0641 22.8924 13.71 22.0817 13.4044C20.4629 12.7944 18.1994 12.4087 15.6791 12.4087C13.1589 12.4087 10.8953 12.7944 9.27657 13.4044C8.4658 13.71 7.83746 14.0641 7.41888 14.4371ZM8.98886 12.6607C10.7208 12.0079 13.0863 11.6125 15.6791 11.6125C18.2719 11.6125 20.6374 12.0079 22.3694 12.6607C23.234 12.9865 23.9614 13.3842 24.4798 13.8461C24.9982 14.308 25.3404 14.8661 25.3404 15.4998C25.3404 16.1334 24.9982 16.6915 24.4798 17.1534C23.9614 17.6153 23.234 18.013 22.3694 18.3388C20.6374 18.9916 18.2719 19.387 15.6791 19.387C13.0863 19.387 10.7208 18.9916 8.98886 18.3388C8.12426 18.013 7.3968 17.6153 6.87841 17.1534C6.36008 16.6915 6.01782 16.1334 6.01782 15.4998C6.01782 14.8661 6.36008 14.308 6.87841 13.8461C7.3968 13.3842 8.12426 12.9865 8.98886 12.6607Z" fill="#1EBAE4"/>
<path fill-rule="evenodd" clip-rule="evenodd" d="M12.4811 7.9073C11.9445 7.73595 11.5409 7.7655 11.2515 7.93044C10.9621 8.09538 10.7344 8.42559 10.6164 8.96995C10.4985 9.51424 10.5019 10.2284 10.6392 11.0743C10.9133 12.7631 11.7067 14.8908 12.9669 17.0452C14.227 19.1996 15.6971 20.9416 17.0418 22.0203C17.7153 22.5606 18.3401 22.9207 18.8767 23.092C19.4132 23.2633 19.8168 23.2338 20.1063 23.0688C20.3957 22.9039 20.6234 22.5737 20.7414 22.0293C20.8593 21.485 20.8558 20.7709 20.7185 19.925C20.4444 18.2362 19.6511 16.1085 18.3909 13.9541C17.1308 11.7997 15.6606 10.0577 14.316 8.97895C13.6425 8.43867 13.0176 8.07862 12.4811 7.9073ZM14.8247 8.36114C16.2634 9.5153 17.793 11.3397 19.0894 13.556C20.3858 15.7724 21.2217 17.9922 21.515 19.7991C21.6614 20.7011 21.6762 21.5218 21.5301 22.1959C21.384 22.8699 21.0655 23.4415 20.5095 23.7583C19.9536 24.0751 19.2928 24.0616 18.6284 23.8495C17.964 23.6373 17.2513 23.2143 16.5331 22.6382C15.0944 21.484 13.5647 19.6596 12.2683 17.4432C10.9719 15.2269 10.1361 13.0071 9.84282 11.2002C9.69641 10.2982 9.68163 9.4775 9.8277 8.80343C9.97375 8.12941 10.2923 7.55778 10.8482 7.24097C11.4042 6.92415 12.065 6.93766 12.7294 7.14981C13.3938 7.36199 14.1065 7.78498 14.8247 8.36114Z" fill="#1EBAE4"/>
<path fill-rule="evenodd" clip-rule="evenodd" d="M20.7417 8.96994C20.6238 8.42559 20.3961 8.09537 20.1066 7.93044C19.8172 7.7655 19.4136 7.73595 18.877 7.90729C18.3405 8.07862 17.7156 8.43867 17.0422 8.97895C15.6975 10.0577 14.2274 11.7997 12.9672 13.9541C11.7071 16.1085 10.9137 18.2362 10.6396 19.925C10.5023 20.7709 10.4989 21.485 10.6168 22.0293C10.7348 22.5737 10.9625 22.9039 11.2519 23.0688C11.5413 23.2338 11.9449 23.2633 12.4815 23.092C13.018 22.9207 13.6429 22.5606 14.3164 22.0203C15.661 20.9416 17.1312 19.1996 18.3913 17.0452C19.6514 14.8908 20.4448 12.7631 20.7189 11.0743C20.8562 10.2284 20.8597 9.51424 20.7417 8.96994ZM21.5153 11.2002C21.2221 13.0071 20.3862 15.2269 19.0898 17.4432C17.7934 19.6596 16.2638 21.484 14.8251 22.6381C14.1069 23.2143 13.3942 23.6373 12.7298 23.8495C12.0654 24.0616 11.4046 24.0751 10.8486 23.7583C10.2927 23.4415 9.97414 22.8699 9.82808 22.1959C9.68201 21.5218 9.6968 20.7011 9.8432 19.7991C10.1365 17.9922 10.9723 15.7724 12.2687 13.556C13.5651 11.3397 15.0948 9.5153 16.5335 8.36113C17.2517 7.78498 17.9643 7.36199 18.6288 7.14981C19.2932 6.93766 19.954 6.92415 20.5099 7.24097C21.0659 7.55778 21.3844 8.12941 21.5305 8.80342C21.6765 9.4775 21.6618 10.2982 21.5153 11.2002Z" fill="#1EBAE4"/>
</g>
<defs>
<clipPath id="clip0_72_2352">
<rect width="19.3577" height="17" fill="white" transform="translate(6 7)"/>
</clipPath>
</defs>
</svg>
