<svg width="32" height="32" viewBox="0 0 32 32" fill="none" xmlns="http://www.w3.org/2000/svg">
<rect width="32" height="32" rx="16" fill="white"/>
<path d="M15.4243 5C10.0932 5 10.4261 7.32399 10.4261 7.32399L10.432 9.73162H15.5194V10.4545H8.41137C8.41137 10.4545 5 10.0656 5 15.4729C5 20.8802 7.97752 20.6884 7.97752 20.6884H9.75453V18.1792C9.75453 18.1792 9.65874 15.1861 12.6845 15.1861C15.7103 15.1861 17.7302 15.1861 17.7302 15.1861C17.7302 15.1861 20.5651 15.2322 20.5651 12.432C20.5651 9.63178 20.5651 7.80193 20.5651 7.80193C20.5651 7.80193 20.9955 5 15.4243 5ZM12.6191 6.61903C13.1253 6.61902 13.5344 7.03026 13.5344 7.53906C13.5344 8.04786 13.1253 8.4591 12.6191 8.4591C12.113 8.4591 11.7039 8.04786 11.7039 7.53906C11.7039 7.03026 12.113 6.61903 12.6191 6.61903Z" fill="url(#paint0_linear_162_1264)"/>
<path d="M15.5757 26C20.9068 26 20.5739 23.6761 20.5739 23.6761L20.5679 21.2684H15.4806V20.5455H22.5886C22.5886 20.5455 26 20.9345 26 15.5272C26 10.1199 23.0224 10.3116 23.0224 10.3116H21.2454V12.8208C21.2454 12.8208 21.3412 15.8139 18.3155 15.8139C15.2897 15.8139 13.2697 15.8139 13.2697 15.8139C13.2697 15.8139 10.4348 15.7679 10.4348 18.5681C10.4348 21.3683 10.4348 23.1981 10.4348 23.1981C10.4348 23.1981 10.0044 26 15.5757 26ZM18.3808 24.381C17.8747 24.381 17.4656 23.9698 17.4656 23.461C17.4656 22.9522 17.8747 22.5409 18.3808 22.5409C18.887 22.5409 19.2961 22.9522 19.2961 23.461C19.2961 23.9698 18.887 24.381 18.3808 24.381Z" fill="url(#paint1_linear_162_1264)"/>
<defs>
<linearGradient id="paint0_linear_162_1264" x1="7.01814" y1="6.83559" x2="17.4564" y2="17.2542" gradientUnits="userSpaceOnUse">
<stop stop-color="#387EB8"/>
<stop offset="1" stop-color="#366994"/>
</linearGradient>
<linearGradient id="paint1_linear_162_1264" x1="13.4058" y1="13.4982" x2="24.6139" y2="24.1802" gradientUnits="userSpaceOnUse">
<stop stop-color="#FFE052"/>
<stop offset="1" stop-color="#FFC331"/>
</linearGradient>
</defs>
</svg>
