<svg width="32" height="32" viewBox="0 0 32 32" fill="none" xmlns="http://www.w3.org/2000/svg">
<rect width="32" height="32" rx="16" fill="white"/>
<g clip-path="url(#clip0_162_1146)">
<path d="M8.71875 5H22.2813C22.7697 4.99953 23.2535 5.09786 23.7049 5.28937C24.1563 5.48088 24.5664 5.76181 24.9118 6.11607C25.2572 6.47034 25.5311 6.89099 25.7179 7.35395C25.9046 7.81691 26.0005 8.3131 26 8.8141V22.1859C26.0005 22.6869 25.9046 23.1831 25.7179 23.646C25.5311 24.109 25.2572 24.5297 24.9118 24.8839C24.5664 25.2382 24.1563 25.5191 23.7049 25.7106C23.2535 25.9021 22.7697 26.0005 22.2813 26H8.71875C8.23027 26.0005 7.74649 25.9021 7.2951 25.7106C6.84372 25.5191 6.43358 25.2382 6.08817 24.8839C5.74276 24.5297 5.46886 24.109 5.28214 23.646C5.09542 23.1831 4.99954 22.6869 5 22.1859V8.8141C4.99954 8.3131 5.09542 7.81691 5.28214 7.35395C5.46886 6.89099 5.74276 6.47034 6.08817 6.11607C6.43358 5.76181 6.84372 5.48088 7.2951 5.28937C7.74649 5.09786 8.23027 4.99953 8.71875 5Z" fill="#000B1D"/>
<path d="M13.4875 21.905C14.6957 21.905 15.675 20.9257 15.675 19.7175V17.53H13.4875C12.2794 17.53 11.3 18.5094 11.3 19.7175C11.3 20.9257 12.2794 21.905 13.4875 21.905Z" fill="#0ACF83"/>
<path d="M11.3 15.3425C11.3 14.1344 12.2794 13.155 13.4875 13.155H15.675V17.53H13.4875C12.2794 17.53 11.3 16.5507 11.3 15.3425Z" fill="#A259FF"/>
<path d="M11.3 10.9675C11.3 9.75941 12.2794 8.78003 13.4875 8.78003H15.675V13.155H13.4875C12.2794 13.155 11.3 12.1757 11.3 10.9675Z" fill="#F24E1E"/>
<path d="M15.675 8.78003H17.8625C19.0707 8.78003 20.05 9.75941 20.05 10.9675C20.05 12.1757 19.0707 13.155 17.8625 13.155H15.675V8.78003Z" fill="#FF7262"/>
<path d="M20.05 15.3425C20.05 16.5507 19.0707 17.53 17.8625 17.53C16.6544 17.53 15.675 16.5507 15.675 15.3425C15.675 14.1344 16.6544 13.155 17.8625 13.155C19.0707 13.155 20.05 14.1344 20.05 15.3425Z" fill="#1ABCFE"/>
</g>
<defs>
<clipPath id="clip0_162_1146">
<rect width="21" height="21" fill="white" transform="translate(5 5)"/>
</clipPath>
</defs>
</svg>
