<svg width="32" height="32" viewBox="0 0 32 32" fill="none" xmlns="http://www.w3.org/2000/svg">
<rect width="32" height="32" rx="16" fill="white"/>
<g clip-path="url(#clip0_162_1139)">
<path d="M8.71875 5H22.2813C22.7697 4.99953 23.2535 5.09786 23.7049 5.28937C24.1563 5.48088 24.5664 5.76181 24.9118 6.11607C25.2572 6.47034 25.5311 6.89099 25.7179 7.35395C25.9046 7.81691 26.0005 8.3131 26 8.8141V22.1859C26.0005 22.6869 25.9046 23.1831 25.7179 23.646C25.5311 24.109 25.2572 24.5297 24.9118 24.8839C24.5664 25.2382 24.1563 25.5191 23.7049 25.7106C23.2535 25.9021 22.7697 26.0005 22.2813 26H8.71875C8.23027 26.0005 7.74649 25.9021 7.2951 25.7106C6.84372 25.5191 6.43358 25.2382 6.08817 24.8839C5.74276 24.5297 5.46886 24.109 5.28214 23.646C5.09542 23.1831 4.99954 22.6869 5 22.1859V8.8141C4.99954 8.3131 5.09542 7.81691 5.28214 7.35395C5.46886 6.89099 5.74276 6.47034 6.08817 6.11607C6.43358 5.76181 6.84372 5.48088 7.2951 5.28937C7.74649 5.09786 8.23027 4.99953 8.71875 5Z" fill="#F7DF1E"/>
<path d="M19.1424 21.4316C19.5654 22.1223 20.1157 22.6299 21.0891 22.6299C21.9067 22.6299 22.4291 22.2213 22.4291 21.6566C22.4291 20.9799 21.8924 20.7403 20.9924 20.3466L20.4991 20.1349C19.0751 19.5283 18.1291 18.7683 18.1291 17.1616C18.1291 15.6816 19.2567 14.5549 21.0191 14.5549C22.2737 14.5549 23.1757 14.9916 23.8257 16.1349L22.2891 17.1216C21.9507 16.5149 21.5857 16.2759 21.0191 16.2759C20.4411 16.2759 20.0747 16.6426 20.0747 17.1216C20.0747 17.7136 20.4414 17.9533 21.2881 18.3199L21.7814 18.5313C23.4581 19.2503 24.4047 19.9833 24.4047 21.6313C24.4047 23.4079 23.0091 24.3813 21.1347 24.3813C19.3021 24.3813 18.1181 23.5079 17.5387 22.3633L19.1424 21.4316ZM12.1714 21.6026C12.4814 22.1526 12.7634 22.6176 13.4414 22.6176C14.0897 22.6176 14.4987 22.3639 14.4987 21.3776V14.6676H16.4721V21.4043C16.4721 23.4476 15.2741 24.3776 13.5254 24.3776C11.9454 24.3776 11.0304 23.5599 10.5651 22.5751L12.1714 21.6026Z" fill="black"/>
</g>
<defs>
<clipPath id="clip0_162_1139">
<rect width="21" height="21" fill="white" transform="translate(5 5)"/>
</clipPath>
</defs>
</svg>
