<svg width="32" height="32" viewBox="0 0 32 32" fill="none" xmlns="http://www.w3.org/2000/svg">
<rect width="32" height="32" rx="16" fill="white"/>
<g clip-path="url(#clip0_162_1171)">
<path d="M8.71875 5H22.2813C22.7697 4.99953 23.2535 5.09786 23.7049 5.28937C24.1563 5.48088 24.5664 5.76181 24.9118 6.11607C25.2572 6.47034 25.5311 6.89099 25.7179 7.35395C25.9046 7.81691 26.0005 8.3131 26 8.8141V22.1859C26.0005 22.6869 25.9046 23.1831 25.7179 23.646C25.5311 24.109 25.2572 24.5297 24.9118 24.8839C24.5664 25.2382 24.1563 25.5191 23.7049 25.7106C23.2535 25.9021 22.7697 26.0005 22.2813 26H8.71875C8.23027 26.0005 7.74649 25.9021 7.2951 25.7106C6.84372 25.5191 6.43358 25.2382 6.08817 24.8839C5.74276 24.5297 5.46886 24.109 5.28214 23.646C5.09542 23.1831 4.99954 22.6869 5 22.1859V8.8141C4.99954 8.3131 5.09542 7.81691 5.28214 7.35395C5.46886 6.89099 5.74276 6.47034 6.08817 6.11607C6.43358 5.76181 6.84372 5.48088 7.2951 5.28937C7.74649 5.09786 8.23027 4.99953 8.71875 5Z" fill="#F0F0F0"/>
<path d="M21.2835 10.5188L20.2297 22.3239L15.4929 23.6371L10.7691 22.3257L9.71643 10.5188H21.2835Z" fill="#E44D26"/>
<path d="M15.5 22.6333L19.3276 21.5722L20.2281 11.4841H15.5V22.6333Z" fill="#F16529"/>
<path d="M13.4515 14.3802H15.5V12.9321H11.8689L11.9035 13.3206L12.2595 17.3111H15.5V15.8631H13.5838L13.4515 14.3802ZM13.7778 18.0352H12.3242L12.527 20.3089L15.4933 21.1323L15.5 21.1305V19.6239L15.4936 19.6255L13.8809 19.1901L13.7778 18.0352Z" fill="#EBEBEB"/>
<path d="M10.7927 7.31006H11.5286V8.03711H12.2018V7.31006H12.9377V9.51175H12.2018V8.7745H11.5287V9.51175H10.7928V7.31006H10.7927ZM13.9054 8.04019H13.2577V7.31006H15.2896V8.04019H14.6415V9.51175H13.9056V8.04019H13.9055H13.9054ZM15.6121 7.31006H16.3794L16.8514 8.08368L17.323 7.31006H18.0906V9.51175H17.3577V8.42047L16.8514 9.2033H16.8387L16.3321 8.42047V9.51175H15.6121V7.31006ZM18.4568 7.31006H19.1929V8.78402H20.2278V9.51175H18.4568V7.31006H18.4568Z" fill="black"/>
<path d="M15.495 17.3111H17.2782L17.1101 19.1892L15.495 19.6251V21.1316L18.4636 20.3089L18.4854 20.0642L18.8257 16.2519L18.8611 15.8631H15.495V17.3111ZM15.495 14.3767V14.3802H18.9928L19.0218 14.0547L19.0879 13.3206L19.1225 12.9321H15.495V14.3767V14.3767Z" fill="white"/>
</g>
<defs>
<clipPath id="clip0_162_1171">
<rect width="21" height="21" fill="white" transform="translate(5 5)"/>
</clipPath>
</defs>
</svg>
