<svg width="40" height="40" viewBox="0 0 40 40" fill="none" xmlns="http://www.w3.org/2000/svg">
<rect width="40" height="40" rx="20" fill="white"/>
<path d="M12.7266 19.5672C14.2611 18.7219 15.9741 18.0164 17.5746 17.3073C20.3281 16.1459 23.0925 15.0047 25.8848 13.9421C26.4281 13.7611 27.4043 13.5841 27.5 14.3892C27.4476 15.5288 27.232 16.6618 27.0841 17.7948C26.7087 20.2863 26.2749 22.7692 25.8518 25.2525C25.706 26.0797 24.6698 26.5079 24.0068 25.9785C22.4134 24.9023 20.8077 23.8364 19.2347 22.7352C18.7194 22.2116 19.1972 21.4597 19.6574 21.0858C20.9698 19.7925 22.3616 18.6936 23.6054 17.3334C23.9409 16.5233 22.9496 17.206 22.6226 17.4153C20.8259 18.6534 19.0733 19.9671 17.179 21.0552C16.2115 21.5878 15.0837 21.1326 14.1166 20.8354C13.2495 20.4764 11.9788 20.1147 12.7265 19.5673L12.7266 19.5672Z" fill="#E4061F"/>
</svg>
