<svg width="40" height="40" viewBox="0 0 40 40" fill="none" xmlns="http://www.w3.org/2000/svg">
<rect width="40" height="40" rx="20" fill="white"/>
<path d="M31.3823 21.465V29.3276H26.7799V21.9445C26.7799 20.1226 26.1087 18.8761 24.4786 18.8761C23.2321 18.8761 22.465 19.7391 22.1774 20.5062C22.0815 20.7938 21.9856 21.1774 21.9856 21.6568V29.3276H17.3831C17.3831 29.3276 17.479 16.8626 17.3831 15.6161H21.9856V17.5338C22.5609 16.5749 23.7115 15.2325 26.1087 15.2325C29.0811 15.2325 31.3823 17.2461 31.3823 21.465ZM12.5889 9C11.0547 9 10 10.0547 10 11.3971C10 12.7395 10.9588 13.7942 12.493 13.7942C14.123 13.7942 15.0819 12.7395 15.0819 11.3971C15.1778 9.95885 14.2189 9 12.5889 9ZM10.2877 29.3276H14.8901V15.6161H10.2877V29.3276Z" fill="#D4151C"/>
</svg>
