<svg width="47" height="47" viewBox="0 0 47 47" fill="none" xmlns="http://www.w3.org/2000/svg">
<path fill-rule="evenodd" clip-rule="evenodd" d="M27.9958 36.7563C35.3695 32.0207 39.4659 26.5091 40.2851 20.2212C41.5603 10.4324 32.8064 5.64101 28.3708 9.94601C23.9353 14.2509 26.5941 19.7153 29.8059 21.2089C33.0177 22.7026 34.9818 22.1824 34.6392 24.1783C34.2965 26.1743 29.7272 31.7084 25.7128 34.2856C25.4464 34.5121 25.3451 34.9516 25.6015 35.2849C25.7703 35.5042 26.1011 35.9342 26.5941 36.575C27.0253 37.1353 27.4383 37.1144 27.9958 36.7563Z" fill="#D4151C"/>
<path fill-rule="evenodd" clip-rule="evenodd" d="M8.59326 37.3784C15.9669 32.6428 20.0633 27.1312 20.8825 20.8433C22.1577 11.0544 13.4037 6.26308 8.96819 10.5681C4.53266 14.873 7.19149 20.3373 10.4033 21.8309C13.615 23.3247 15.5792 22.8044 15.2365 24.8004C14.8939 26.7964 10.3245 32.3305 6.31014 34.9077C6.04381 35.1342 5.94247 35.5736 6.19901 35.907C6.36762 36.1263 6.69848 36.5563 7.19149 37.1971C7.62262 37.7574 8.03563 37.7364 8.59326 37.3784Z" fill="#D4151C"/>
</svg>
