<svg width="40" height="40" viewBox="0 0 40 40" fill="none" xmlns="http://www.w3.org/2000/svg">
<rect width="40" height="40" rx="20" fill="white"/>
<path d="M32.2652 13.6733C31.9708 12.5423 31.1033 11.6516 30.0018 11.3494C28.0056 10.8 20.0002 10.8 20.0002 10.8C20.0002 10.8 11.9948 10.8 9.99845 11.3494C8.89692 11.6516 8.02943 12.5423 7.73503 13.6733C7.2002 15.7231 7.2002 20 7.2002 20C7.2002 20 7.2002 24.2769 7.73503 26.3268C8.02943 27.4578 8.89692 28.3485 9.99845 28.6509C11.9948 29.2 20.0002 29.2 20.0002 29.2C20.0002 29.2 28.0056 29.2 30.0018 28.6509C31.1033 28.3485 31.9708 27.4578 32.2652 26.3268C32.8002 24.2769 32.8002 20 32.8002 20C32.8002 20 32.8002 15.7231 32.2652 13.6733Z" fill="#D4151C"/>
<path d="M17.6001 24.4001V16.4001L24.0001 20.4003L17.6001 24.4001Z" fill="white"/>
</svg>
